<svg xmlns="http://www.w3.org/2000/svg" xmlns:xlink="http://www.w3.org/1999/xlink" width="500" zoomAndPan="magnify" viewBox="0 0 375 374.999991" height="500" preserveAspectRatio="xMidYMid meet" version="1.0"><defs><clipPath id="26aee57157"><path d="M 149.34375 234 L 156 234 L 156 262.5 L 149.34375 262.5 Z M 149.34375 234 " clip-rule="nonzero"/></clipPath><clipPath id="b852b58056"><path d="M 224 235 L 225.84375 235 L 225.84375 237 L 224 237 Z M 224 235 " clip-rule="nonzero"/></clipPath><clipPath id="f58c31640f"><path d="M 162 112.5 L 164 112.5 L 164 115 L 162 115 Z M 162 112.5 " clip-rule="nonzero"/></clipPath></defs><rect x="-37.5" width="450" fill="#ffffff" y="-37.499999" height="449.999989" fill-opacity="1"/><rect x="-37.5" width="450" fill="#ffffff" y="-37.499999" height="449.999989" fill-opacity="1"/><rect x="-37.5" width="450" fill="#ffffff" y="-37.499999" height="449.999989" fill-opacity="1"/><path fill="#f4e8dc" d="M 211.109375 183.523438 C 206.308594 185.421875 201.441406 187.269531 196.707031 189.363281 C 188.203125 193.136719 179.769531 197.058594 171.332031 200.972656 C 170.296875 201.453125 169.480469 202.382812 168.4375 202.890625 C 167.351562 203.3125 166.238281 203.640625 165.097656 203.878906 C 164.707031 200.675781 166.992188 199.679688 168.621094 198.832031 C 171.96875 197.097656 175.597656 195.90625 179.109375 194.476562 C 183.3125 192.769531 187.4375 190.949219 191.71875 189.363281 C 196.003906 187.777344 200.101562 186.503906 204.300781 185.101562 C 206.492188 184.363281 208.683594 183.660156 210.886719 182.941406 Z M 211.109375 183.523438 " fill-opacity="1" fill-rule="nonzero"/><path fill="#f4e8dc" d="M 184.976562 135.660156 C 183.921875 137.921875 183.238281 139.65625 182.332031 141.261719 C 176.484375 151.558594 171.914062 162.484375 167.019531 173.214844 C 165.171875 177.3125 162.757812 181.179688 160.546875 185.148438 C 160.273438 185.492188 159.964844 185.796875 159.621094 186.070312 C 159.398438 181.214844 179.242188 141.636719 184.976562 135.660156 Z M 184.976562 135.660156 " fill-opacity="1" fill-rule="nonzero"/><path fill="#f4e8dc" d="M 217.074219 205.824219 C 211.082031 206.101562 205.050781 206.203125 199.101562 206.75 C 189.941406 207.515625 180.8125 208.59375 171.664062 209.515625 C 170.832031 209.601562 169.992188 209.757812 169.148438 209.757812 C 167.925781 209.757812 167.066406 209.230469 167.140625 207.910156 C 167.207031 206.703125 168.066406 206.40625 169.121094 206.371094 C 173.117188 206.230469 177.121094 206.019531 181.144531 205.871094 C 187.160156 205.652344 193.171875 205.382812 199.195312 205.273438 C 205.214844 205.160156 211.144531 205.273438 217.121094 205.273438 Z M 217.074219 205.824219 " fill-opacity="1" fill-rule="nonzero"/><path fill="#f4e8dc" d="M 213.292969 232.070312 C 211.820312 231.507812 210.378906 230.886719 208.886719 230.398438 C 197.234375 226.570312 185.578125 222.710938 173.503906 220.351562 C 171.847656 220.109375 170.183594 220.027344 168.511719 220.109375 C 166.59375 220.109375 164.808594 219.050781 164.808594 217.820312 C 164.808594 216.59375 166.382812 215.699219 168.410156 216.105469 C 170.878906 216.59375 173.265625 217.5 175.699219 218.210938 C 179.960938 219.457031 184.273438 220.542969 188.472656 221.957031 C 193.28125 223.570312 198 225.480469 202.765625 227.226562 C 205.539062 228.238281 208.3125 229.164062 211.089844 230.1875 C 211.933594 230.542969 212.753906 230.949219 213.550781 231.40625 Z M 213.292969 232.070312 " fill-opacity="1" fill-rule="nonzero"/><path fill="#f4e8dc" d="M 197.277344 249.445312 C 193.429688 246.511719 189.675781 243.464844 185.726562 240.667969 C 179.695312 236.40625 173.605469 232.207031 167.390625 228.222656 C 165.410156 226.949219 162.96875 226.375 160.695312 225.601562 C 159.1875 225.085938 158.382812 224.105469 158.777344 222.933594 C 159.175781 221.761719 160.34375 221.46875 161.71875 222.222656 C 164.394531 223.671875 166.976562 225.304688 169.582031 226.835938 C 170.976562 227.59375 172.324219 228.417969 173.625 229.320312 C 178.40625 233.011719 183.125 236.703125 187.871094 240.394531 C 189.941406 242.007812 192.0625 243.585938 194.058594 245.300781 C 195.363281 246.425781 196.464844 247.785156 197.65625 248.992188 Z M 197.277344 249.445312 " fill-opacity="1" fill-rule="nonzero"/><path fill="#f4e8dc" d="M 165.78125 191.882812 C 166.753906 189.824219 168.554688 188.542969 170.40625 187.269531 C 176.667969 182.96875 182.914062 178.621094 189.332031 174.5625 C 194.445312 171.363281 199.738281 168.496094 205.214844 165.960938 C 204.53125 166.453125 203.882812 166.996094 203.171875 167.4375 C 192.550781 174.035156 182.136719 180.910156 172.644531 189.039062 C 171.308594 190.109375 169.894531 191.054688 168.398438 191.882812 C 167.679688 192.195312 166.929688 192.398438 166.152344 192.5 Z M 165.78125 191.882812 " fill-opacity="1" fill-rule="nonzero"/><g clip-path="url(#26aee57157)"><path fill="#f4e8dc" d="M 150.785156 234.496094 C 151.082031 234.492188 151.363281 234.542969 151.632812 234.65625 C 151.90625 234.765625 152.144531 234.925781 152.347656 235.136719 C 152.554688 235.347656 152.707031 235.589844 152.8125 235.863281 C 152.917969 236.136719 152.964844 236.417969 152.953125 236.710938 C 153.726562 244.777344 154.5 252.835938 155.265625 260.898438 C 155.285156 261.546875 155.042969 262.070312 154.53125 262.472656 C 154.234375 261.675781 153.984375 260.859375 153.792969 260.027344 C 152.804688 254.105469 151.824219 248.171875 150.796875 242.257812 C 150.582031 241.019531 150.15625 239.820312 149.945312 238.566406 C 149.714844 237.144531 149.335938 235.640625 150.785156 234.496094 Z M 150.785156 234.496094 " fill-opacity="1" fill-rule="nonzero"/></g><path fill="#f4e8dc" d="M 156.410156 148.828125 C 156.648438 149.3125 156.785156 149.820312 156.828125 150.359375 C 155.726562 160.160156 154.570312 169.984375 153.414062 179.804688 C 153.253906 180.226562 153.039062 180.621094 152.777344 180.984375 C 152.332031 180.238281 151.777344 179.722656 151.730469 179.140625 C 151.503906 177.464844 151.484375 175.789062 151.664062 174.109375 C 152.941406 166.128906 154.339844 158.148438 155.753906 150.175781 C 155.925781 149.691406 156.171875 149.25 156.484375 148.84375 Z M 156.410156 148.828125 " fill-opacity="1" fill-rule="nonzero"/><path fill="#f4e8dc" d="M 178.730469 254.851562 C 174.523438 250.449219 170.40625 246.011719 166.085938 241.675781 C 163.941406 239.496094 161.554688 237.558594 159.335938 235.457031 C 158.074219 234.257812 156.511719 233.214844 156.289062 231.015625 C 158.84375 230.90625 160.417969 232.679688 161.628906 234.082031 C 165.4375 238.511719 170.195312 242.171875 172.921875 247.542969 C 173.5625 248.800781 174.929688 249.683594 175.929688 250.765625 C 176.929688 251.84375 178.113281 253.210938 179.203125 254.457031 Z M 178.730469 254.851562 " fill-opacity="1" fill-rule="nonzero"/><path fill="#f4e8dc" d="M 156.484375 148.84375 C 156.597656 146.898438 156.699219 144.941406 156.828125 142.609375 C 157.863281 144.785156 157.753906 146.023438 156.410156 148.828125 Z M 156.484375 148.84375 " fill-opacity="1" fill-rule="nonzero"/><path fill="#f4e8dc" d="M 162.246094 114.738281 C 162.488281 117.554688 162.488281 117.554688 160.722656 120.65625 C 161.257812 118.691406 161.785156 116.722656 162.320312 114.757812 Z M 162.246094 114.738281 " fill-opacity="1" fill-rule="nonzero"/><path fill="#f4e8dc" d="M 159.675781 130.464844 C 159.527344 131.175781 159.371094 131.875 159.222656 132.585938 L 158.722656 132.476562 L 159.25 130.371094 Z M 159.675781 130.464844 " fill-opacity="1" fill-rule="nonzero"/><g clip-path="url(#b852b58056)"><path fill="#f4e8dc" d="M 225.722656 236.601562 L 224.234375 236.175781 L 224.34375 235.734375 L 225.84375 236.121094 Z M 225.722656 236.601562 " fill-opacity="1" fill-rule="nonzero"/></g><g clip-path="url(#f58c31640f)"><path fill="#f4e8dc" d="M 162.320312 114.757812 L 162.515625 112.527344 L 163.097656 112.65625 C 162.8125 113.347656 162.527344 114.039062 162.246094 114.738281 Z M 162.320312 114.757812 " fill-opacity="1" fill-rule="nonzero"/></g></svg>