<?xml version="1.0" encoding="UTF-8" standalone="no"?>
<svg
   width="165"
   zoomAndPan="magnify"
   viewBox="0 0 123.75 73.499998"
   height="98"
   preserveAspectRatio="xMidYMid"
   version="1.0"
   id="svg984"
   sodipodi:docname="abstractwaves.svg"
   inkscape:version="1.2.2 (732a01da63, 2022-12-09)"
   xmlns:inkscape="http://www.inkscape.org/namespaces/inkscape"
   xmlns:sodipodi="http://sodipodi.sourceforge.net/DTD/sodipodi-0.dtd"
   xmlns="http://www.w3.org/2000/svg"
   xmlns:svg="http://www.w3.org/2000/svg">
  <sodipodi:namedview
     id="namedview986"
     pagecolor="#505050"
     bordercolor="#eeeeee"
     borderopacity="1"
     inkscape:showpageshadow="0"
     inkscape:pageopacity="0"
     inkscape:pagecheckerboard="0"
     inkscape:deskcolor="#505050"
     showgrid="false"
     inkscape:zoom="1.608"
     inkscape:cx="99.813433"
     inkscape:cy="61.878109"
     inkscape:window-width="1920"
     inkscape:window-height="991"
     inkscape:window-x="-9"
     inkscape:window-y="-9"
     inkscape:window-maximized="1"
     inkscape:current-layer="svg984" />
  <defs
     id="defs978">
    <clipPath
       id="0e4530b54a">
      <path
         d="M 112.5,141 H 262 v 93 H 112.5 Z m 0,0"
         clip-rule="nonzero"
         id="path975" />
    </clipPath>
  </defs>
  <g
     clip-path="url(#0e4530b54a)"
     id="g982"
     transform="matrix(0.83104654,0,0,0.79032266,-93.718297,-111.4355)">
    <path
       fill="#cbbcdc"
       d="m 131.31641,192.50781 c -2.86329,3.28516 -5.65235,6.64844 -8.22657,10.15625 -2.10546,2.8711 -3.74609,6.03516 -4.65625,9.55078 -0.33593,1.30078 -1.12109,2.48047 -1.70703,3.72266 -0.57422,-0.42969 -1.14843,-0.89063 -1.16797,-0.86719 -0.55859,0.64063 -1.20703,0.87891 -1.66015,0.0547 -0.51953,-0.94141 -1.25,-2.07813 -1.10938,-3.01563 0.59375,-3.96093 2.28516,-7.55468 4.2461,-11.02734 3.08984,-5.47656 6.95312,-10.38672 11.37109,-14.80078 7.89453,-7.88672 16.20703,-15.28125 26.625,-19.80078 8.26953,-3.58594 16.76172,-6.54297 25.59766,-8.35156 2.97656,-0.60938 6.07031,-0.67579 9.12109,-0.89454 5.13281,-0.36718 10.27734,-0.64843 15.41406,-0.99218 3.75,-0.25 7.51953,-0.36328 11.23828,-0.85938 3.79297,-0.50781 7.83594,-0.62109 11.08203,-2.83984 2.29688,-1.57031 4.12891,-3.86328 6.03907,-5.94922 0.93359,-1.01953 1.51953,-2.34766 2.36328,-3.46094 0.59375,-0.78125 1.35547,-1.43359 2.03515,-2.13281 0.8711,0.57031 1.55469,1.01953 2.28516,1.5 0.18359,-0.21875 0.44531,-0.54297 0.89063,-1.08984 -0.0195,0.65234 -0.0312,1.04296 -0.0508,1.64843 0.5625,-0.34375 0.94141,-0.57422 1.26954,-0.77343 0.73046,3.625 -1.75,6.09765 -3.45313,8.71875 -3.33594,5.13281 -7.94141,8.80078 -14.125,9.875 -4.15625,0.72265 -8.36719,1.1914 -12.57422,1.51953 -7.01172,0.54297 -14.04687,0.83593 -21.0664,1.3164 -3.41016,0.23438 -6.86329,0.39063 -10.20313,1.04688 -4.17578,0.8164 -8.26562,2.0664 -12.36719,3.23047 -1.48047,0.42187 -2.83593,1.30468 -4.32422,1.6875 -5.23828,1.34765 -9.82031,3.97265 -14.16796,7.05078 -3.95704,2.80078 -7.96094,5.55859 -11.69922,8.63281 -2.56641,2.10938 -4.82813,4.62891 -7.01953,7.14453 z m 130.09375,-11.20703 c -0.45313,-0.99609 -0.89063,-2.05469 -1.92969,-1.96484 -1.29297,0.10937 -2.75781,0.48828 -3.76172,1.25781 -2.73438,2.09375 -5.13281,4.62891 -7.91016,6.65625 -2.63281,1.91797 -5.39062,4.10156 -8.42968,4.94141 -5.82813,1.60546 -11.8711,2.5 -17.8711,3.39453 -4.92578,0.73437 -9.92969,0.92968 -14.87109,1.57422 -7.19531,0.93359 -14.42188,0.80468 -21.64063,0.8789 -5.69531,0.0625 -11.24218,0.30078 -16.83984,2.09766 -5.19141,1.66797 -10.19922,3.44531 -14.73438,6.4375 -6.38281,4.21484 -11.69531,9.45703 -15.22265,16.35547 -1.50391,2.9414 -1.4961,3.42968 -1.07813,7.52734 0.17969,1.73047 1.31641,2.42578 2.67188,3.55859 0.30469,-0.92578 0.92578,-1.80078 0.71094,-2.35156 -0.72266,-1.86328 0.47656,-3.11328 1.10546,-4.55469 1.75782,-4.0039 4.3711,-7.39062 7.51172,-10.40234 5.21094,-4.99219 11.31641,-8.47266 18.25782,-10.30078 4.03125,-1.0625 8.21093,-2.19531 12.32031,-2.19141 11.02734,0.004 22.05469,0.47657 33.04687,-0.8125 7.08594,-0.83203 14.17578,-1.65625 21.24219,-2.625 4.11328,-0.5625 8.1875,-1.5039 11.73828,-3.77343 5.19141,-3.31641 9.82813,-7.34375 13.98047,-11.87891 0.89063,-0.97266 2.64453,-1.76563 1.70313,-3.82422 z m -121.74219,20.75391 c 6.46094,-5.97657 13.58203,-11.0625 21.84375,-14.39063 4.92187,-1.97656 9.94922,-3.71094 15.22265,-4.03125 4.85547,-0.29687 9.77735,-0.0234 14.64063,0.36328 6.26172,0.5 12.5,0.71875 18.69531,-0.40234 3.74219,-0.67578 7.40625,-1.77344 11.125,-2.58984 4.31641,-0.94532 8.35156,-2.57032 11.90625,-5.16016 2.9961,-2.18359 5.85156,-4.57422 8.60547,-7.05859 1.14063,-1.03125 2.39063,-2.29688 2.08984,-4.14454 -0.13281,-0.83203 -0.42968,-1.64453 -0.71875,-2.44531 -0.17187,-0.47265 -0.45312,-1.25781 -0.71875,-1.27344 -0.66015,-0.0352 -1.49609,0.10157 -1.98046,0.50782 -1.27344,1.0664 -2.3711,2.33984 -3.58204,3.48437 -4.11328,3.88281 -8.86718,6.88672 -14.23046,8.4961 -5.50782,1.65625 -11.2461,2.51953 -16.86329,3.83593 -3.65625,0.85547 -7.35156,0.60547 -11,0.38282 -8.69531,-0.53516 -17.42187,-1.84766 -25.96484,0.77734 -4.40234,1.35156 -8.77734,2.98437 -12.87891,5.0625 -3.90234,1.97266 -7.4414,4.67578 -11.11718,7.08594 -5.94532,3.89843 -10.98047,8.73828 -14.73438,14.78515 -1.60156,2.58594 -2.8789,5.37891 -4.20312,8.125 -1.44531,3.00391 -2.96094,6.05469 -0.35547,9.26953 1.24609,-0.13671 2.12109,-0.6875 2.49219,-1.89843 0.39453,-1.27344 0.6289,-2.61719 1.1875,-3.8125 2.6289,-5.60157 6.00781,-10.77735 10.53906,-14.96875 z m 0,0"
       fill-opacity="1"
       fill-rule="nonzero"
       id="path980" />
  </g>
</svg>
