<svg xmlns="http://www.w3.org/2000/svg" xmlns:xlink="http://www.w3.org/1999/xlink" width="500" zoomAndPan="magnify" viewBox="0 0 375 374.999991" height="500" preserveAspectRatio="xMidYMid meet" version="1.0"><defs><clipPath id="0d2c4394f1"><path d="M 120 154 L 274 154 L 274 230 L 120 230 Z M 120 154 " clip-rule="nonzero"/></clipPath><clipPath id="099b6c9cc1"><path d="M 116.867188 209.507812 L 131.078125 136.632812 L 278.304688 165.339844 L 264.09375 238.21875 Z M 116.867188 209.507812 " clip-rule="nonzero"/></clipPath><clipPath id="475bc41dae"><path d="M 116.867188 209.507812 L 131.078125 136.632812 L 278.304688 165.339844 L 264.09375 238.21875 Z M 116.867188 209.507812 " clip-rule="nonzero"/></clipPath><clipPath id="5594b50f99"><path d="M 116.867188 209.507812 L 131.078125 136.632812 L 278.304688 165.339844 L 264.09375 238.21875 Z M 116.867188 209.507812 " clip-rule="nonzero"/></clipPath></defs><rect x="-37.5" width="450" fill="#ffffff" y="-37.499999" height="449.999989" fill-opacity="1"/><rect x="-37.5" width="450" fill="#ffffff" y="-37.499999" height="449.999989" fill-opacity="1"/><rect x="-37.5" width="450" fill="#ffffff" y="-37.499999" height="449.999989" fill-opacity="1"/><g clip-path="url(#0d2c4394f1)"><g clip-path="url(#099b6c9cc1)"><g clip-path="url(#475bc41dae)"><g clip-path="url(#5594b50f99)"><path fill="#040606" d="M 270.410156 188.535156 C 268.949219 190.402344 267.445312 192.242188 265.902344 194.054688 C 265.808594 193.789062 265.621094 193.542969 265.316406 193.375 C 258.425781 189.574219 252.496094 184.535156 246.105469 180.003906 C 240.351562 175.925781 234.164062 172.023438 229.683594 166.476562 C 229.371094 166.085938 228.960938 165.964844 228.578125 166.023438 C 227.601562 163.980469 226.484375 162.003906 225.246094 160.109375 C 240.683594 168.96875 255.875 178.253906 270.410156 188.535156 Z M 264.53125 195.644531 C 263.648438 196.648438 262.761719 197.648438 261.855469 198.632812 C 256.683594 196.070312 251.976562 193.082031 247.503906 189.328125 C 242.5625 185.1875 238.050781 180.441406 234.332031 175.164062 C 233.398438 173.839844 231.40625 175.371094 232.339844 176.695312 C 236.074219 182 240.617188 186.730469 245.511719 190.964844 C 249.722656 194.609375 254.667969 198.4375 259.953125 200.65625 C 258.339844 202.339844 256.691406 203.984375 254.996094 205.574219 C 245.851562 201.34375 240.011719 193.15625 233.425781 185.675781 C 233.316406 185.554688 233.199219 185.464844 233.078125 185.394531 C 233.132812 180.597656 232.285156 175.851562 230.742188 171.328125 C 234.890625 175.40625 239.835938 178.675781 244.554688 182.019531 C 251.066406 186.621094 257.066406 192.242188 264.378906 195.589844 C 264.433594 195.613281 264.480469 195.625 264.53125 195.644531 Z M 252.914062 207.484375 C 249.792969 210.269531 246.527344 212.882812 243.109375 215.257812 C 243.039062 215.070312 242.914062 214.898438 242.714844 214.769531 C 238.804688 212.207031 235.292969 209.199219 232.289062 205.679688 C 232.453125 203.425781 232.40625 201.152344 232.132812 198.882812 C 236.222656 203.601562 240.917969 207.824219 246.480469 210.574219 C 247.699219 211.179688 248.871094 209.21875 247.691406 208.5 C 243.855469 206.167969 240.324219 203.613281 237.101562 200.46875 C 233.714844 197.167969 230.808594 193.375 228.082031 189.519531 C 227.140625 188.1875 225.132812 189.730469 226.074219 191.0625 C 227.671875 193.320312 229.363281 195.578125 231.175781 197.753906 C 231.015625 197.707031 230.847656 197.695312 230.675781 197.730469 C 227.890625 198.335938 225.09375 198.921875 222.296875 199.484375 C 222.835938 199.167969 223.148438 198.453125 222.679688 197.761719 C 220.664062 194.769531 218.519531 191.882812 216.660156 188.789062 C 216.476562 188.480469 216.234375 188.328125 215.980469 188.285156 C 221.101562 187.871094 226.203125 187.386719 231.257812 186.886719 C 231.304688 186.988281 231.367188 187.089844 231.453125 187.1875 C 237.777344 194.40625 243.917969 203.425781 252.914062 207.484375 Z M 235.523438 219.980469 C 233.636719 218.550781 232.007812 216.851562 230.199219 215.320312 C 230.949219 213.296875 231.511719 211.203125 231.875 209.070312 C 234.59375 212.027344 237.703125 214.640625 241.144531 216.574219 C 239.3125 217.777344 237.445312 218.917969 235.523438 219.980469 Z M 224.710938 224.925781 C 226.515625 222.726562 228.011719 220.308594 229.195312 217.742188 C 230.476562 218.921875 231.691406 220.210938 233.046875 221.296875 C 230.355469 222.660156 227.578125 223.878906 224.710938 224.925781 Z M 200.914062 191.636719 C 203.5 195.667969 207.308594 199.050781 211.480469 201.539062 C 205.121094 202.660156 198.734375 203.625 192.324219 204.363281 C 192.285156 204.214844 192.214844 204.066406 192.105469 203.917969 C 188.246094 198.710938 182.601562 195.320312 178.011719 190.839844 C 176.863281 189.71875 175.351562 191.707031 176.492188 192.816406 C 180.714844 196.953125 185.699219 200.214844 189.617188 204.660156 C 187.882812 204.84375 186.144531 205.011719 184.40625 205.160156 C 184.367188 204.894531 184.230469 204.644531 183.96875 204.460938 C 181.089844 202.433594 178.269531 200.414062 175.683594 198.011719 C 173.261719 195.761719 170.34375 192.785156 169.699219 189.398438 C 169.664062 189.203125 169.589844 189.035156 169.492188 188.894531 C 174.832031 189.34375 180.203125 189.558594 185.589844 189.59375 C 189.226562 194.53125 193.820312 199.789062 199.394531 202.519531 C 200.589844 203.109375 201.714844 201.21875 200.578125 200.492188 C 195.992188 197.566406 192.085938 193.84375 188.726562 189.597656 C 197.660156 189.546875 206.617188 189.039062 215.496094 188.328125 C 214.828125 188.554688 214.28125 189.429688 214.761719 190.246094 C 216.578125 193.335938 218.480469 196.464844 220.796875 199.207031 C 221.015625 199.46875 221.273438 199.597656 221.53125 199.636719 C 219.445312 200.054688 217.359375 200.460938 215.265625 200.851562 C 210.542969 197.863281 206.011719 194.925781 202.914062 190.097656 C 202.039062 188.734375 200.042969 190.277344 200.914062 191.636719 Z M 173.65625 205.8125 C 160.796875 206.28125 147.554688 205.503906 135.085938 202.046875 C 135.023438 201.851562 134.914062 201.660156 134.730469 201.496094 C 130.824219 197.902344 126.875 194.210938 124.304688 189.492188 C 124.222656 189.34375 124.121094 189.226562 124.007812 189.132812 C 124.164062 187.730469 124.367188 186.339844 124.632812 184.964844 C 128.917969 190.691406 132.96875 196.65625 137.925781 201.8125 C 138.96875 202.898438 140.847656 201.546875 139.828125 200.351562 C 134.726562 194.386719 130.152344 188.035156 125.339844 181.84375 C 125.632812 180.746094 125.960938 179.664062 126.34375 178.59375 C 126.894531 178.835938 127.445312 179.070312 128 179.300781 C 126.953125 179.035156 125.769531 180.214844 126.664062 181.175781 C 132.667969 187.617188 137.957031 194.722656 144.125 201.007812 C 145.183594 202.082031 147.085938 200.722656 146.035156 199.539062 C 140.199219 192.949219 134.632812 186.105469 128.621094 179.671875 C 128.519531 179.5625 128.410156 179.484375 128.292969 179.421875 C 133.625 181.628906 139.054688 183.402344 144.5625 184.8125 C 150.582031 191.472656 156.910156 198.136719 164.433594 203.105469 C 165.691406 203.9375 167.132812 202.128906 165.878906 201.226562 C 159.648438 196.75 154.101562 191.4375 148.875 185.839844 C 151.253906 186.367188 153.648438 186.824219 156.050781 187.226562 C 160.691406 192.371094 165.511719 197.332031 170.019531 202.59375 C 171.023438 203.761719 172.871094 202.375 171.929688 201.125 C 168.351562 196.359375 164.074219 192.164062 159.976562 187.832031 C 162.484375 188.1875 165.003906 188.476562 167.53125 188.71875 C 167.308594 188.941406 167.183594 189.265625 167.261719 189.683594 C 167.949219 193.34375 170.507812 196.382812 173.066406 198.941406 C 175.433594 201.308594 178.066406 203.613281 180.933594 205.425781 C 178.511719 205.59375 176.085938 205.722656 173.65625 205.8125 Z M 123.605469 197.960938 C 123.589844 196.363281 123.617188 194.757812 123.691406 193.15625 C 125.421875 195.804688 127.566406 198.238281 129.878906 200.429688 C 127.757812 199.695312 125.664062 198.875 123.605469 197.960938 Z M 219.363281 156.644531 C 225.757812 164.292969 230.332031 174.167969 230.441406 184.28125 C 206.296875 186.671875 181.144531 188.644531 157.082031 184.699219 C 157.0625 184.675781 157.042969 184.65625 157.023438 184.632812 C 156.546875 184.097656 155.878906 184.117188 155.394531 184.410156 C 145.382812 182.648438 135.570312 179.835938 126.109375 175.570312 C 125.457031 175.273438 124.628906 175.617188 124.363281 176.28125 C 123.773438 177.757812 123.277344 179.265625 122.859375 180.800781 C 122.496094 181.121094 122.304688 181.617188 122.519531 182.121094 C 121.339844 187.003906 120.925781 192.09375 120.953125 197.128906 C 120.140625 197.488281 119.863281 198.894531 120.929688 199.40625 C 120.949219 199.417969 120.972656 199.429688 120.996094 199.441406 C 121.023438 200.320312 121.058594 201.195312 121.105469 202.066406 C 121.199219 203.765625 123.777344 203.433594 123.707031 201.761719 C 123.691406 201.394531 123.679688 201.027344 123.664062 200.660156 C 139.007812 207.324219 156.136719 208.8125 172.714844 208.378906 C 191.886719 207.878906 210.933594 204.609375 229.660156 200.621094 C 229.707031 201.210938 229.734375 201.804688 229.746094 202.394531 C 229.632812 202.230469 229.515625 202.070312 229.402344 201.90625 C 228.492188 200.570312 226.503906 202.101562 227.414062 203.433594 C 228.097656 204.4375 228.824219 205.421875 229.585938 206.386719 C 228.808594 214.160156 225.277344 221.570312 219.277344 226.773438 C 218.097656 227.792969 219.160156 229.449219 220.574219 229.046875 C 225.890625 227.546875 230.921875 225.464844 235.6875 222.929688 C 236.246094 223.058594 236.753906 222.699219 236.992188 222.21875 C 243.746094 218.46875 249.96875 213.800781 255.707031 208.546875 C 256.015625 208.644531 256.324219 208.734375 256.640625 208.820312 C 257.816406 209.132812 258.398438 207.449219 257.632812 206.742188 C 259.375 205.082031 261.066406 203.359375 262.71875 201.605469 C 263.527344 201.644531 264.082031 200.914062 263.996094 200.234375 C 267.289062 196.644531 270.40625 192.894531 273.359375 189.0625 C 273.789062 188.507812 273.707031 187.621094 273.117188 187.203125 C 256.398438 175.285156 238.792969 164.714844 220.9375 154.605469 C 219.761719 153.9375 218.546875 155.667969 219.363281 156.644531 " fill-opacity="1" fill-rule="nonzero"/></g></g></g></g></svg>