<svg xmlns="http://www.w3.org/2000/svg" xmlns:xlink="http://www.w3.org/1999/xlink" width="500" zoomAndPan="magnify" viewBox="0 0 375 374.999991" height="500" preserveAspectRatio="xMidYMid meet" version="1.0"><defs><clipPath id="86ac01fb5f"><path d="M 112.5 183 L 117 183 L 117 188 L 112.5 188 Z M 112.5 183 " clip-rule="nonzero"/></clipPath><clipPath id="3b0214a428"><path d="M 118 168.683594 L 244 168.683594 L 244 206.183594 L 118 206.183594 Z M 118 168.683594 " clip-rule="nonzero"/></clipPath><clipPath id="f07bcc309e"><path d="M 245 188 L 262.5 188 L 262.5 204 L 245 204 Z M 245 188 " clip-rule="nonzero"/></clipPath></defs><rect x="-37.5" width="450" fill="#ffffff" y="-37.499999" height="449.999989" fill-opacity="1"/><rect x="-37.5" width="450" fill="#ffffff" y="-37.499999" height="449.999989" fill-opacity="1"/><rect x="-37.5" width="450" fill="#ffffff" y="-37.499999" height="449.999989" fill-opacity="1"/><g clip-path="url(#86ac01fb5f)"><path fill="#1d1d1b" d="M 113.648438 187.878906 C 113.546875 187.878906 113.445312 187.863281 113.34375 187.824219 C 112.898438 187.652344 112.671875 187.15625 112.839844 186.710938 C 113.269531 185.585938 113.800781 184.492188 114.429688 183.46875 C 114.675781 183.066406 115.210938 182.933594 115.617188 183.183594 C 116.023438 183.429688 116.152344 183.964844 115.902344 184.367188 C 115.332031 185.300781 114.84375 186.289062 114.457031 187.320312 C 114.328125 187.667969 114 187.878906 113.648438 187.878906 Z M 113.648438 187.878906 " fill-opacity="1" fill-rule="nonzero"/></g><g clip-path="url(#3b0214a428)"><path fill="#1d1d1b" d="M 209.5625 206.179688 C 209.09375 206.179688 208.707031 205.808594 208.699219 205.339844 C 208.6875 204.863281 209.0625 204.46875 209.539062 204.453125 C 211.675781 204.402344 213.851562 204.199219 216.191406 203.84375 C 216.664062 203.769531 217.105469 204.09375 217.179688 204.566406 C 217.25 205.039062 216.925781 205.476562 216.453125 205.550781 C 214.039062 205.917969 211.792969 206.121094 209.585938 206.179688 C 209.574219 206.179688 209.566406 206.179688 209.5625 206.179688 Z M 202.785156 205.808594 C 202.742188 205.808594 202.699219 205.804688 202.65625 205.796875 C 200.34375 205.460938 198.074219 204.890625 195.910156 204.117188 C 195.460938 203.953125 195.226562 203.460938 195.390625 203.011719 C 195.550781 202.566406 196.046875 202.332031 196.496094 202.496094 C 198.554688 203.230469 200.714844 203.769531 202.914062 204.09375 C 203.386719 204.164062 203.710938 204.601562 203.640625 205.074219 C 203.578125 205.5 203.207031 205.808594 202.785156 205.808594 Z M 222.980469 204.234375 C 222.59375 204.234375 222.238281 203.96875 222.140625 203.574219 C 222.027344 203.113281 222.3125 202.644531 222.777344 202.535156 C 224.742188 202.0625 226.8125 201.5 229.292969 200.773438 C 229.75 200.636719 230.230469 200.898438 230.367188 201.351562 C 230.5 201.8125 230.238281 202.289062 229.78125 202.425781 C 227.277344 203.160156 225.179688 203.730469 223.183594 204.207031 C 223.117188 204.226562 223.050781 204.234375 222.980469 204.234375 Z M 190.101562 201.207031 C 189.945312 201.207031 189.785156 201.167969 189.640625 201.074219 C 187.59375 199.777344 185.789062 198.269531 184.269531 196.59375 C 183.945312 196.242188 183.972656 195.695312 184.332031 195.375 C 184.683594 195.054688 185.234375 195.082031 185.554688 195.4375 C 186.96875 197 188.65625 198.40625 190.570312 199.621094 C 190.972656 199.878906 191.09375 200.414062 190.835938 200.8125 C 190.667969 201.066406 190.390625 201.207031 190.101562 201.207031 Z M 236.035156 200.480469 C 235.667969 200.480469 235.324219 200.242188 235.207031 199.875 C 235.066406 199.417969 235.320312 198.9375 235.777344 198.792969 L 242.265625 196.785156 C 242.722656 196.644531 243.207031 196.898438 243.347656 197.351562 C 243.492188 197.808594 243.234375 198.289062 242.78125 198.429688 L 236.289062 200.441406 C 236.207031 200.464844 236.121094 200.480469 236.035156 200.480469 Z M 181.222656 191.230469 C 180.890625 191.230469 180.570312 191.039062 180.429688 190.714844 L 180.3125 190.445312 C 179.632812 188.832031 179.148438 187.140625 178.6875 185.5 C 178.558594 185.054688 178.4375 184.613281 178.304688 184.171875 C 178.171875 183.714844 178.4375 183.234375 178.890625 183.105469 C 179.351562 182.96875 179.832031 183.234375 179.964844 183.6875 C 180.09375 184.136719 180.222656 184.585938 180.347656 185.03125 C 180.796875 186.621094 181.265625 188.261719 181.90625 189.777344 L 182.011719 190.023438 C 182.203125 190.460938 182 190.96875 181.566406 191.15625 C 181.457031 191.207031 181.339844 191.230469 181.222656 191.230469 Z M 119.65625 179.746094 C 119.402344 179.746094 119.152344 179.636719 118.984375 179.425781 C 118.683594 179.054688 118.738281 178.511719 119.109375 178.210938 C 120.796875 176.847656 122.796875 175.621094 125.054688 174.558594 C 125.488281 174.355469 126.003906 174.539062 126.207031 174.96875 C 126.414062 175.398438 126.226562 175.914062 125.792969 176.117188 C 123.660156 177.121094 121.78125 178.273438 120.199219 179.550781 C 120.039062 179.679688 119.847656 179.746094 119.65625 179.746094 Z M 176.488281 178.589844 C 176.207031 178.589844 175.933594 178.453125 175.765625 178.203125 C 174.59375 176.445312 173.050781 174.964844 171.175781 173.804688 C 170.769531 173.554688 170.644531 173.023438 170.894531 172.617188 C 171.148438 172.214844 171.679688 172.089844 172.085938 172.339844 C 174.179688 173.628906 175.898438 175.28125 177.207031 177.25 C 177.472656 177.648438 177.363281 178.179688 176.964844 178.445312 C 176.820312 178.542969 176.652344 178.589844 176.488281 178.589844 Z M 131.78125 173.828125 C 131.40625 173.828125 131.0625 173.585938 130.949219 173.210938 C 130.816406 172.753906 131.078125 172.273438 131.535156 172.140625 C 133.585938 171.53125 135.769531 171.011719 138.222656 170.539062 C 138.691406 170.449219 139.144531 170.753906 139.238281 171.222656 C 139.328125 171.691406 139.019531 172.144531 138.550781 172.234375 C 136.15625 172.695312 134.023438 173.207031 132.027344 173.796875 C 131.945312 173.816406 131.863281 173.828125 131.78125 173.828125 Z M 165.363281 171.390625 C 165.296875 171.390625 165.226562 171.386719 165.15625 171.367188 C 163.199219 170.882812 160.992188 170.570312 158.597656 170.441406 C 158.121094 170.414062 157.757812 170.007812 157.78125 169.53125 C 157.808594 169.054688 158.222656 168.6875 158.695312 168.71875 C 161.199219 168.855469 163.511719 169.183594 165.574219 169.691406 C 166.035156 169.804688 166.320312 170.269531 166.207031 170.734375 C 166.105469 171.128906 165.753906 171.390625 165.363281 171.390625 Z M 145.097656 171.171875 C 144.667969 171.171875 144.296875 170.855469 144.242188 170.421875 C 144.175781 169.949219 144.507812 169.515625 144.984375 169.453125 L 145.164062 169.429688 C 147.5625 169.113281 149.738281 168.894531 151.804688 168.769531 C 152.28125 168.746094 152.691406 169.101562 152.722656 169.578125 C 152.75 170.054688 152.390625 170.460938 151.910156 170.488281 C 149.886719 170.613281 147.753906 170.824219 145.390625 171.136719 L 145.214844 171.164062 C 145.171875 171.171875 145.132812 171.171875 145.097656 171.171875 Z M 145.097656 171.171875 " fill-opacity="1" fill-rule="nonzero"/></g><path fill="#1d1d1b" d="M 249.039062 196.453125 C 248.671875 196.453125 248.328125 196.21875 248.210938 195.847656 C 248.070312 195.394531 248.324219 194.910156 248.78125 194.769531 L 252.085938 193.746094 C 252.539062 193.605469 253.023438 193.859375 253.167969 194.316406 C 253.308594 194.769531 253.054688 195.253906 252.597656 195.394531 L 249.292969 196.414062 C 249.210938 196.441406 249.128906 196.453125 249.039062 196.453125 Z M 249.039062 196.453125 " fill-opacity="1" fill-rule="nonzero"/><g clip-path="url(#f07bcc309e)"><path fill="#1d1d1b" d="M 262.320312 191.476562 C 258.167969 194.667969 253.269531 199.429688 250.636719 203.683594 L 251.039062 194.96875 L 245.753906 188.019531 C 250.339844 190.039062 257.085938 191.199219 262.320312 191.476562 Z M 262.320312 191.476562 " fill-opacity="1" fill-rule="nonzero"/></g></svg>