<?xml version="1.0" encoding="UTF-8" standalone="no"?>
<svg
   width="784.49438"
   zoomAndPan="magnify"
   viewBox="0 0 588.37079 81.535577"
   height="108.7141"
   preserveAspectRatio="xMidYMid"
   version="1.0"
   id="svg4002"
   sodipodi:docname="barcelostext.svg"
   inkscape:version="1.2.2 (732a01da63, 2022-12-09)"
   xmlns:inkscape="http://www.inkscape.org/namespaces/inkscape"
   xmlns:sodipodi="http://sodipodi.sourceforge.net/DTD/sodipodi-0.dtd"
   xmlns="http://www.w3.org/2000/svg"
   xmlns:svg="http://www.w3.org/2000/svg">
  <sodipodi:namedview
     id="namedview4004"
     pagecolor="#505050"
     bordercolor="#eeeeee"
     borderopacity="1"
     inkscape:showpageshadow="0"
     inkscape:pageopacity="0"
     inkscape:pagecheckerboard="0"
     inkscape:deskcolor="#505050"
     showgrid="false"
     inkscape:zoom="0.804"
     inkscape:cx="504.35323"
     inkscape:cy="251.86567"
     inkscape:window-width="1920"
     inkscape:window-height="991"
     inkscape:window-x="-9"
     inkscape:window-y="-9"
     inkscape:window-maximized="1"
     inkscape:current-layer="svg4002" />
  <defs
     id="defs3936">
    <g
       id="g3934" />
  </defs>
  <g
     id="g4069"
     transform="matrix(1.6064364,0,0,1.9041332,-9.1707422,-285.73698)">
    <g
       fill="#e0d7eb"
       fill-opacity="1"
       id="g3944">
      <g
         transform="translate(3.35328,191.81535)"
         id="g3942">
        <g
           id="g3940">
          <path
             d="m 49.992188,-25.835938 c -1.007813,-9.191406 -9.863282,-15.917968 -23.257813,-15.917968 -14.964844,0 -24.378906,8.519531 -24.378906,21.410156 0,12.890625 9.414062,21.410156 24.378906,21.410156 13.394531,0 22.363281,-6.839844 23.425781,-16.871094 H 39.007812 c -0.671874,5.324219 -5.101562,8.519532 -12.273437,8.519532 -8.128906,0 -13.171875,-4.933594 -13.171875,-13.058594 0,-8.128906 5.042969,-13.058594 13.171875,-13.058594 6.726563,0 10.816406,2.578125 12.160156,7.566406 z m 0,0"
             id="path3938" />
        </g>
      </g>
    </g>
    <g
       id="g4034">
      <g
         fill="#e0d7eb"
         fill-opacity="1"
         id="g3952">
        <g
           transform="translate(58.670822,191.81535)"
           id="g3950">
          <g
             id="g3948">
            <path
               d="m 4.539062,0 h 10.199219 v -14.964844 h 11.773438 c 6.050781,0 7.117187,2.128906 7.117187,9.023438 v 2.804687 c 0,1.175781 0.277344,2.238281 0.839844,3.136719 h 11.433594 c -1.960938,-2.242188 -1.960938,-5.886719 -2.1875,-10.761719 -0.222656,-4.652343 -0.726563,-6.894531 -5.097656,-8.6875 4.257812,-1.625 6.722656,-5.492187 6.722656,-10.3125 0,-7.675781 -5.210938,-10.925781 -15.804688,-10.925781 H 4.539062 Z m 10.199219,-32.339844 h 11.097657 c 5.886718,0 8.746093,0.335938 8.746093,4.203125 0,3.8125 -2.804687,4.820313 -8.296875,4.820313 H 14.738281 Z m 0,0"
               id="path3946" />
          </g>
        </g>
      </g>
      <g
         fill="#e0d7eb"
         fill-opacity="1"
         id="g3960">
        <g
           transform="translate(109.72885,191.81535)"
           id="g3958">
          <g
             id="g3956">
            <path
               d="m 26.734375,-41.753906 c -14.964844,0 -24.378906,8.519531 -24.378906,21.410156 0,12.890625 9.414062,21.410156 24.378906,21.410156 14.964844,0 24.324219,-8.519531 24.324219,-21.410156 0,-12.890625 -9.359375,-21.410156 -24.324219,-21.410156 z m 0,8.351562 c 8.125,0 13.113281,4.875 13.113281,13.058594 0,8.125 -4.988281,13.058594 -13.113281,13.058594 -8.128906,0 -13.171875,-4.933594 -13.171875,-13.058594 0,-8.128906 5.042969,-13.058594 13.171875,-13.058594 z m 0,0"
               id="path3954" />
          </g>
        </g>
      </g>
      <g
         fill="#e0d7eb"
         fill-opacity="1"
         id="g3968">
        <g
           transform="translate(165.94313,191.81535)"
           id="g3966">
          <g
             id="g3964">
            <path
               d="m 43.714844,-28.191406 c 0,-8.519532 -7.285156,-13.5625 -20.289063,-13.5625 -12.273437,0 -19.613281,5.882812 -19.613281,13.507812 0,6.890625 5.042969,10.367188 15.410156,11.433594 l 7.175782,0.726562 c 5.492187,0.5625 8.015624,1.289063 8.015624,4.429688 0,3.136719 -3.253906,4.988281 -9.304687,4.988281 -7.847656,0 -11.882813,-2.46875 -11.828125,-7.398437 H 2.859375 c 0,10.144531 7.285156,15.132812 21.015625,15.132812 14.292969,0 21.632812,-4.933594 21.632812,-13.84375 0,-7.175781 -4.929687,-10.816406 -15.132812,-11.9375 L 22.8125,-25.5 c -5.832031,-0.617188 -8.242188,-1.066406 -8.242188,-4.09375 0,-2.855469 3.140626,-4.648438 9.023438,-4.648438 6.222656,0 9.53125,2.015626 9.976562,6.050782 z m 0,0"
               id="path3962" />
          </g>
        </g>
      </g>
      <g
         fill="#e0d7eb"
         fill-opacity="1"
         id="g3976">
        <g
           transform="translate(217.11327,191.81535)"
           id="g3974">
          <g
             id="g3972">
            <path
               d="m 43.714844,-28.191406 c 0,-8.519532 -7.285156,-13.5625 -20.289063,-13.5625 -12.273437,0 -19.613281,5.882812 -19.613281,13.507812 0,6.890625 5.042969,10.367188 15.410156,11.433594 l 7.175782,0.726562 c 5.492187,0.5625 8.015624,1.289063 8.015624,4.429688 0,3.136719 -3.253906,4.988281 -9.304687,4.988281 -7.847656,0 -11.882813,-2.46875 -11.828125,-7.398437 H 2.859375 c 0,10.144531 7.285156,15.132812 21.015625,15.132812 14.292969,0 21.632812,-4.933594 21.632812,-13.84375 0,-7.175781 -4.929687,-10.816406 -15.132812,-11.9375 L 22.8125,-25.5 c -5.832031,-0.617188 -8.242188,-1.066406 -8.242188,-4.09375 0,-2.855469 3.140626,-4.648438 9.023438,-4.648438 6.222656,0 9.53125,2.015626 9.976562,6.050782 z m 0,0"
               id="path3970" />
          </g>
        </g>
      </g>
      <g
         fill="#e0d7eb"
         fill-opacity="1"
         id="g3984">
        <g
           transform="translate(268.28342,191.81535)"
           id="g3982">
          <g
             id="g3980">
            <path
               d="M 4.539062,-40.6875 V 0 h 10.199219 v -16.308594 h 22.421875 v -8.351562 H 14.738281 v -7.679688 H 39.289062 V -40.6875 Z m 0,0"
               id="path3978" />
          </g>
        </g>
      </g>
      <g
         fill="#e0d7eb"
         fill-opacity="1"
         id="g3992">
        <g
           transform="translate(311.77523,191.81535)"
           id="g3990">
          <g
             id="g3988">
            <path
               d="M 14.910156,-40.6875 H 4.707031 V 0 h 10.203125 z m 0,0"
               id="path3986" />
          </g>
        </g>
      </g>
      <g
         fill="#e0d7eb"
         fill-opacity="1"
         id="g4000">
        <g
           transform="translate(334.19369,191.81535)"
           id="g3998">
          <g
             id="g3996">
            <path
               d="m -0.335938,-40.6875 v 8.347656 H 13.621094 V 0 H 23.820312 V -32.339844 H 37.773438 V -40.6875 Z m 0,0"
               id="path3994" />
          </g>
        </g>
      </g>
    </g>
  </g>
</svg>
