<?xml version="1.0" encoding="UTF-8" standalone="no"?>
<svg
   width="500"
   zoomAndPan="magnify"
   viewBox="0 0 375 374.999991"
   height="500"
   preserveAspectRatio="xMidYMid meet"
   version="1.0"
   id="svg752"
   sodipodi:docname="circles.svg"
   inkscape:version="1.2.2 (732a01da63, 2022-12-09)"
   xmlns:inkscape="http://www.inkscape.org/namespaces/inkscape"
   xmlns:sodipodi="http://sodipodi.sourceforge.net/DTD/sodipodi-0.dtd"
   xmlns="http://www.w3.org/2000/svg"
   xmlns:svg="http://www.w3.org/2000/svg">
  <sodipodi:namedview
     id="namedview754"
     pagecolor="#505050"
     bordercolor="#eeeeee"
     borderopacity="1"
     inkscape:showpageshadow="0"
     inkscape:pageopacity="0"
     inkscape:pagecheckerboard="0"
     inkscape:deskcolor="#505050"
     showgrid="false"
     inkscape:zoom="1.55"
     inkscape:cx="250"
     inkscape:cy="250"
     inkscape:window-width="1920"
     inkscape:window-height="991"
     inkscape:window-x="-9"
     inkscape:window-y="-9"
     inkscape:window-maximized="1"
     inkscape:current-layer="svg752" />
  <defs
     id="defs704">
    <clipPath
       id="46204a4d27">
      <path
         d="M 91.800781 137 L 209 137 L 209 255 L 91.800781 255 Z M 91.800781 137 "
         clip-rule="nonzero"
         id="path698" />
    </clipPath>
    <clipPath
       id="e83e0a7208">
      <path
         d="M 201 176 L 298 176 L 298 271.691406 L 201 271.691406 Z M 201 176 "
         clip-rule="nonzero"
         id="path701" />
    </clipPath>
  </defs>
  <g
     id="g833"
     transform="matrix(0.95083643,0,0,0.95083643,14.620084,13.356721)">
    <g
       clip-path="url(#46204a4d27)"
       id="g708">
      <path
         fill="#bed4eb"
         d="m 208.70703,195.97266 c 0,1.91015 -0.0937,3.8164 -0.28125,5.71875 -0.1875,1.90234 -0.46875,3.78906 -0.83984,5.66406 -0.375,1.875 -0.83985,3.72656 -1.39453,5.55469 -0.55469,1.82812 -1.19922,3.625 -1.92969,5.39062 -0.73438,1.76563 -1.55078,3.49219 -2.45313,5.17578 -0.90234,1.6875 -1.88281,3.32422 -2.94922,4.91406 -1.0625,1.58594 -2.19921,3.1211 -3.41406,4.59766 -1.21484,1.47656 -2.49609,2.89063 -3.85156,4.24219 -1.35156,1.35156 -2.76953,2.63281 -4.24609,3.84765 -1.48047,1.21094 -3.01563,2.34766 -4.60547,3.41016 -1.59375,1.0625 -3.23047,2.04297 -4.91797,2.94141 -1.6875,0.90234 -3.41797,1.71875 -5.1836,2.44922 -1.76953,0.73046 -3.57031,1.375 -5.39843,1.92968 -1.83203,0.55469 -3.6875,1.01953 -5.5625,1.39063 -1.87891,0.375 -3.76953,0.65234 -5.67188,0.83984 -1.90625,0.1875 -3.8125,0.28125 -5.72656,0.28125 -1.91406,0 -3.82422,-0.0937 -5.72656,-0.28125 -1.90625,-0.1875 -3.79688,-0.46484 -5.67188,-0.83984 -1.8789,-0.3711 -3.73047,-0.83594 -5.5625,-1.39063 -1.83203,-0.55468 -3.63281,-1.19922 -5.39843,-1.92968 -1.76954,-0.73047 -3.4961,-1.54688 -5.1836,-2.44922 -1.6875,-0.89844 -3.32812,-1.87891 -4.91797,-2.94141 -1.59375,-1.0625 -3.1289,-2.19922 -4.60547,-3.41016 -1.48046,-1.21484 -2.89453,-2.49609 -4.25,-3.84765 -1.35156,-1.35156 -2.63671,-2.76563 -3.85156,-4.24219 -1.21094,-1.47656 -2.35156,-3.01172 -3.41406,-4.59766 -1.0625,-1.58984 -2.046876,-3.22656 -2.94922,-4.91406 -0.902344,-1.68359 -1.71875,-3.41015 -2.449219,-5.17578 -0.734375,-1.76562 -1.378906,-3.5625 -1.933593,-5.39062 -0.554688,-1.82813 -1.019532,-3.67969 -1.390626,-5.55469 -0.375,-1.875 -0.65625,-3.76172 -0.84375,-5.66406 -0.1875,-1.90235 -0.28125,-3.8086 -0.28125,-5.71875 0,-1.91016 0.09375,-3.82032 0.28125,-5.71875 0.1875,-1.90235 0.46875,-3.79297 0.84375,-5.66407 0.371094,-1.875 0.835938,-3.72656 1.390626,-5.55468 0.554687,-1.83204 1.199218,-3.62891 1.933593,-5.39454 0.730469,-1.76562 1.546875,-3.48828 2.449219,-5.17578 0.902344,-1.68359 1.88672,-3.32031 2.94922,-4.91015 1.0625,-1.58985 2.20312,-3.1211 3.41406,-4.59766 1.21485,-1.48047 2.5,-2.89453 3.85156,-4.24609 1.35547,-1.35157 2.76954,-2.63282 4.25,-3.84375 1.47657,-1.21094 3.01172,-2.35157 4.60547,-3.41016 1.58985,-1.0625 3.23047,-2.04297 4.91797,-2.94531 1.6875,-0.90235 3.41406,-1.71485 5.1836,-2.44922 1.76562,-0.73047 3.5664,-1.37109 5.39843,-1.92969 1.83203,-0.55469 3.6836,-1.01562 5.5625,-1.39062 1.875,-0.3711 3.76563,-0.65235 5.67188,-0.83985 1.90234,-0.1875 3.8125,-0.28125 5.72656,-0.28125 1.91406,0 3.82031,0.0937 5.72656,0.28125 1.90235,0.1875 3.79297,0.46875 5.67188,0.83985 1.875,0.375 3.73047,0.83593 5.5625,1.39062 1.82812,0.5586 3.6289,1.19922 5.39843,1.92969 1.76563,0.73437 3.4961,1.54687 5.1836,2.44922 1.6875,0.90234 3.32422,1.88281 4.91797,2.94531 1.58984,1.05859 3.125,2.19922 4.60547,3.41016 1.47656,1.21093 2.89453,2.49218 4.24609,3.84375 1.35547,1.35156 2.63672,2.76562 3.85156,4.24609 1.21485,1.47656 2.35156,3.00781 3.41406,4.59766 1.06641,1.58984 2.04688,3.22656 2.94922,4.91015 0.90235,1.6875 1.71875,3.41016 2.45313,5.17578 0.73047,1.76563 1.375,3.5625 1.92969,5.39454 0.55468,1.82812 1.01953,3.67968 1.39453,5.55468 0.37109,1.8711 0.65234,3.76172 0.83984,5.66407 0.1875,1.89843 0.28125,3.80859 0.28125,5.71875 z m 0,0"
         fill-opacity="1"
         fill-rule="nonzero"
         id="path706" />
    </g>
    <path
       fill="#312940"
       d="m 176.05078,252.92969 c 0,1.03515 -0.10156,2.05859 -0.30469,3.07812 -0.19922,1.01563 -0.5,2 -0.89843,2.95703 -0.39454,0.95703 -0.88282,1.86719 -1.46094,2.73047 -0.57422,0.85938 -1.23047,1.65625 -1.96485,2.39063 -0.73046,0.73047 -1.53125,1.38672 -2.39453,1.96093 -0.85937,0.57422 -1.76953,1.0625 -2.73047,1.45704 -0.95703,0.39843 -1.94531,0.69531 -2.96484,0.89843 -1.01562,0.20313 -2.04297,0.30469 -3.08203,0.30469 -1.03516,0 -2.0625,-0.10156 -3.08203,-0.30469 -1.01563,-0.20312 -2.00391,-0.5 -2.96485,-0.89843 -0.95703,-0.39454 -1.86718,-0.88282 -2.73046,-1.45704 -0.86329,-0.57421 -1.66016,-1.23046 -2.39454,-1.96093 -0.73046,-0.73438 -1.38671,-1.53125 -1.96484,-2.39063 -0.57422,-0.86328 -1.0625,-1.77344 -1.45703,-2.73047 -0.39844,-0.95703 -0.69922,-1.9414 -0.90234,-2.95703 -0.19922,-1.01953 -0.30079,-2.04297 -0.30079,-3.07812 0,-1.03907 0.10157,-2.0625 0.30079,-3.07813 0.20312,-1.01953 0.5039,-2.0039 0.90234,-2.96094 0.39453,-0.95703 0.88281,-1.86718 1.45703,-2.73046 0.57813,-0.85938 1.23438,-1.65625 1.96484,-2.39063 0.73438,-0.73047 1.53125,-1.38672 2.39454,-1.96094 0.86328,-0.57422 1.77343,-1.0625 2.73046,-1.45703 0.96094,-0.39844 1.94922,-0.69531 2.96485,-0.89844 1.01953,-0.20312 2.04687,-0.30468 3.08203,-0.30468 1.03906,0 2.06641,0.10156 3.08203,0.30468 1.01953,0.20313 2.00781,0.5 2.96484,0.89844 0.96094,0.39453 1.8711,0.88281 2.73047,1.45703 0.86328,0.57422 1.66407,1.23047 2.39453,1.96094 0.73438,0.73438 1.39063,1.53125 1.96485,2.39063 0.57812,0.86328 1.0664,1.77343 1.46094,2.73046 0.39843,0.95704 0.69921,1.94141 0.89843,2.96094 0.20313,1.01563 0.30469,2.03906 0.30469,3.07813 z m 0,0"
       fill-opacity="1"
       fill-rule="nonzero"
       id="path710" />
    <path
       fill="#312940"
       d="m 257.22266,223.74609 c 0,0.50782 -0.0469,1.01563 -0.14844,1.51172 -0.0977,0.5 -0.2461,0.98438 -0.44141,1.45703 -0.19531,0.46875 -0.43359,0.91407 -0.71484,1.33985 -0.28516,0.42187 -0.60547,0.8125 -0.96875,1.17187 -0.35938,0.35938 -0.75,0.6836 -1.17578,0.96485 -0.42188,0.28125 -0.8711,0.52343 -1.33985,0.71484 -0.47265,0.19531 -0.95703,0.34375 -1.45703,0.44141 -0.5,0.10156 -1.0039,0.15234 -1.51562,0.15234 -0.50782,0 -1.01172,-0.0508 -1.51172,-0.15234 -0.5,-0.0977 -0.98438,-0.2461 -1.45703,-0.44141 -0.46875,-0.19141 -0.91797,-0.43359 -1.33985,-0.71484 -0.42578,-0.28125 -0.8164,-0.60547 -1.17968,-0.96485 -0.35938,-0.35937 -0.67969,-0.75 -0.96485,-1.17187 -0.28125,-0.42578 -0.51953,-0.8711 -0.71484,-1.33985 -0.19531,-0.47265 -0.34375,-0.95703 -0.44141,-1.45703 -0.10156,-0.49609 -0.15234,-1.0039 -0.15234,-1.51172 0,-0.50781 0.0508,-1.01172 0.15234,-1.51172 0.0977,-0.5 0.2461,-0.98437 0.44141,-1.45312 0.19531,-0.47266 0.43359,-0.91797 0.71484,-1.33984 0.28516,-0.42579 0.60547,-0.81641 0.96485,-1.17579 0.36328,-0.35937 0.7539,-0.67968 1.17968,-0.96484 0.42188,-0.28125 0.8711,-0.51953 1.33985,-0.71484 0.47265,-0.19532 0.95703,-0.34375 1.45703,-0.44141 0.5,-0.0977 1.0039,-0.14844 1.51172,-0.14844 0.51172,0 1.01562,0.0508 1.51562,0.14844 0.5,0.0977 0.98438,0.24609 1.45703,0.44141 0.46875,0.19531 0.91797,0.43359 1.33985,0.71484 0.42578,0.28516 0.8164,0.60547 1.17578,0.96484 0.36328,0.35938 0.68359,0.75 0.96875,1.17579 0.28125,0.42187 0.51953,0.86718 0.71484,1.33984 0.19531,0.46875 0.34375,0.95312 0.44141,1.45312 0.10156,0.5 0.14844,1.00391 0.14844,1.51172 z m 0,0"
       fill-opacity="1"
       fill-rule="nonzero"
       id="path712" />
    <path
       fill="#bed4eb"
       d="m 153.48437,125.93359 c -1.30078,0 -2.59375,-0.0937 -3.8789,-0.28515 -1.28516,-0.19141 -2.55078,-0.47266 -3.79688,-0.85156 -1.24218,-0.375 -2.45312,-0.84375 -3.625,-1.39844 -1.17578,-0.55469 -2.30468,-1.19141 -3.38672,-1.91406 -1.07812,-0.72266 -2.10156,-1.51563 -3.0664,-2.39063 -0.96094,-0.87109 -1.85547,-1.80859 -2.67969,-2.8125 -0.82422,-1.00391 -1.57031,-2.0625 -2.24219,-3.17578 -0.66797,-1.11328 -1.25,-2.26953 -1.74609,-3.46875 -0.5,-1.19922 -0.90625,-2.42969 -1.22266,-3.6875 -0.3125,-1.25781 -0.53515,-2.53516 -0.66406,-3.82813 -0.125,-1.28906 -0.16015,-2.585934 -0.0937,-3.882809 0.0625,-1.296875 0.22266,-2.582031 0.47656,-3.855469 0.25391,-1.273437 0.59766,-2.519531 1.03516,-3.742187 0.4375,-1.222656 0.96484,-2.40625 1.57812,-3.550781 0.61329,-1.144532 1.30469,-2.238282 2.07813,-3.28125 0.77734,-1.042969 1.62109,-2.023438 2.54297,-2.941406 0.61328,-0.601563 1.2539,-1.175782 1.92578,-1.714844 0.66797,-0.542969 1.36328,-1.050782 2.08203,-1.523438 0.71875,-0.472656 1.46094,-0.910156 2.22266,-1.308594 0.76172,-0.402343 1.54297,-0.765624 2.33984,-1.089843 0.79688,-0.324219 1.60938,-0.609375 2.4375,-0.855469 0.82422,-0.246094 1.66016,-0.449219 2.50781,-0.613281 0.84375,-0.164063 1.69532,-0.285157 2.55469,-0.367188 0.85547,-0.08203 1.71484,-0.117187 2.57813,-0.117187 0.85937,0.0039 1.71875,0.05078 2.57812,0.136718 0.85547,0.08594 1.70703,0.214844 2.55078,0.386719 0.84375,0.171875 1.67969,0.382813 2.50391,0.632813 0.82422,0.25 1.63281,0.542968 2.42969,0.875 0.79296,0.328125 1.57031,0.699218 2.32812,1.105468 0.76172,0.40625 1.5,0.847657 2.21484,1.328126 0.71485,0.476562 1.40625,0.988281 2.07032,1.535156 0.66797,0.546875 1.30468,1.125 1.91406,1.734375 0.60937,0.605469 1.1875,1.242187 1.73437,1.90625 0.54688,0.667969 1.0586,1.355469 1.53907,2.070312 0.48047,0.714844 0.92187,1.453125 1.32812,2.210938 0.41016,0.757812 0.77735,1.535156 1.10938,2.328125 0.33203,0.792968 0.62109,1.601562 0.875,2.425781 0.2539,0.824219 0.46484,1.65625 0.63281,2.5 0.17187,0.84375 0.30078,1.691406 0.38672,2.546875 0.0898,0.855469 0.13281,1.714844 0.13672,2.574219 0.004,0.859371 -0.0352,1.718751 -0.11328,2.578121 -0.082,0.85547 -0.20313,1.70704 -0.36719,2.55079 -0.16406,0.84375 -0.3711,1.67968 -0.61719,2.5039 -0.24609,0.82422 -0.53125,1.63281 -0.85547,2.42969 -0.32422,0.79687 -0.6875,1.57812 -1.08984,2.33984 -0.39844,0.76172 -0.83594,1.5 -1.3125,2.21875 -0.47266,0.71875 -0.98047,1.41407 -1.52344,2.08203 -0.53906,0.66797 -1.11328,1.3086 -1.71875,1.92188 -1.22266,1.23047 -2.55859,2.32812 -4,3.29297 -1.44141,0.96484 -2.96484,1.78125 -4.57031,2.44531 -1.60547,0.66406 -3.25781,1.16406 -4.96094,1.5 -1.70312,0.33594 -3.42578,0.5 -5.16016,0.49609 z m 0,-47.890621 c -11.86718,0 -21.51953,9.640625 -21.51953,21.488281 0,11.85156 9.65235,21.49219 21.51953,21.49219 11.86719,0 21.51954,-9.64063 21.51954,-21.49219 0,-11.847656 -9.65235,-21.488281 -21.51954,-21.488281 z m 0,0"
       fill-opacity="1"
       fill-rule="nonzero"
       id="path714" />
    <path
       fill="#d9ab5e"
       d="m 273.6875,168.51172 c -6.61328,0 -11.99219,-5.375 -11.99219,-11.97656 0,-6.60547 5.37891,-11.98047 11.99219,-11.98047 6.61328,0 11.99609,5.375 11.99609,11.98047 0,6.60156 -5.38281,11.97656 -11.99609,11.97656 z m 0,-21.01172 c -4.98438,0 -9.04688,4.05078 -9.04688,9.03516 0,4.98046 4.0586,9.03125 9.04688,9.03125 4.99219,0 9.04687,-4.05079 9.04687,-9.03125 0,-4.98438 -4.05859,-9.03516 -9.04687,-9.03516 z m 0,0"
       fill-opacity="1"
       fill-rule="nonzero"
       id="path716" />
    <path
       fill="#d9ab5e"
       d="m 133.14453,188.83984 30.07031,30.02735 c -3.77343,-1.64844 -7.32812,-3.67969 -10.66797,-6.08203 l -13.30859,-13.29297 c -2.41016,-3.33594 -4.44141,-6.88672 -6.09375,-10.65235 z m 0,0"
       fill-opacity="1"
       fill-rule="nonzero"
       id="path718" />
    <path
       fill="#d9ab5e"
       d="m 128.63672,172.15625 51.28515,51.21484 c -1.83593,-0.21093 -3.66015,-0.51172 -5.47265,-0.89843 l -44.91406,-44.85157 c -0.38672,-1.80859 -0.6875,-3.6289 -0.89844,-5.46484 z m 0,0"
       fill-opacity="1"
       fill-rule="nonzero"
       id="path720" />
    <path
       fill="#d9ab5e"
       d="m 128.51172,159.85156 63.73047,63.64453 c -1.4375,0.13672 -2.87891,0.21875 -4.32422,0.25 l -59.65625,-59.57812 c 0.0273,-1.44141 0.11328,-2.88281 0.25,-4.31641 z m 0,0"
       fill-opacity="1"
       fill-rule="nonzero"
       id="path722" />
    <path
       fill="#d9ab5e"
       d="m 130.42578,149.58594 72.09766,71.99609 c -1.21485,0.34375 -2.44141,0.64453 -3.67188,0.90234 L 129.52344,153.25 c 0.26172,-1.23047 0.5625,-2.45313 0.90234,-3.66406 z m 0,0"
       fill-opacity="1"
       fill-rule="nonzero"
       id="path724" />
    <path
       fill="#d9ab5e"
       d="m 133.72656,140.70312 77.69141,77.58204 c -1.05469,0.49609 -2.1211,0.95312 -3.19531,1.3789 l -75.8711,-75.76953 c 0.42578,-1.07422 0.88281,-2.14062 1.375,-3.19141 z m 0,0"
       fill-opacity="1"
       fill-rule="nonzero"
       id="path726" />
    <path
       fill="#d9ab5e"
       d="m 138.13281,132.91797 81.07813,80.97265 c -0.92188,0.61719 -1.85547,1.20704 -2.80469,1.76563 l -80.04688,-79.93359 c 0.5625,-0.94922 1.15235,-1.88282 1.77344,-2.80469 z m 0,0"
       fill-opacity="1"
       fill-rule="nonzero"
       id="path728" />
    <path
       fill="#d9ab5e"
       d="m 143.49609,126.09766 82.54297,82.43359 c -0.80078,0.73047 -1.61719,1.43359 -2.45312,2.11719 l -82.20703,-82.09766 c 0.67968,-0.83203 1.38671,-1.64844 2.11718,-2.45312 z m 0,0"
       fill-opacity="1"
       fill-rule="nonzero"
       id="path730" />
    <path
       fill="#d9ab5e"
       d="m 149.76562,120.17578 82.20704,82.09766 c -0.67969,0.83203 -1.38672,1.64843 -2.1211,2.44922 l -82.54297,-82.42969 c 0.80078,-0.73438 1.6211,-1.4375 2.45703,-2.11719 z m 0,0"
       fill-opacity="1"
       fill-rule="nonzero"
       id="path732" />
    <path
       fill="#d9ab5e"
       d="m 156.94141,115.16406 80.05078,79.94531 c -0.5625,0.94532 -1.15235,1.87891 -1.76953,2.79688 L 154.14453,116.9375 c 0.91797,-0.62109 1.85156,-1.21094 2.79688,-1.77344 z m 0,0"
       fill-opacity="1"
       fill-rule="nonzero"
       id="path734" />
    <path
       fill="#d9ab5e"
       d="m 165.12891,111.16016 75.86718,75.76562 c -0.42578,1.07813 -0.88281,2.14063 -1.375,3.19141 l -77.6914,-77.58203 c 1.05468,-0.49219 2.12109,-0.94922 3.19922,-1.375 z m 0,0"
       fill-opacity="1"
       fill-rule="nonzero"
       id="path736" />
    <path
       fill="#d9ab5e"
       d="m 174.49609,108.33594 69.32813,69.23828 c -0.26172,1.23047 -0.5625,2.45312 -0.90235,3.66406 l -72.09375,-72 c 1.21485,-0.33984 2.4375,-0.64062 3.66797,-0.90234 z m 0,0"
       fill-opacity="1"
       fill-rule="nonzero"
       id="path738" />
    <path
       fill="#d9ab5e"
       d="m 185.42969,107.07422 59.66015,59.57812 c -0.0312,1.44141 -0.11328,2.88282 -0.2539,4.31641 l -63.72657,-63.64453 c 1.4375,-0.13672 2.875,-0.21875 4.32032,-0.25 z m 0,0"
       fill-opacity="1"
       fill-rule="nonzero"
       id="path740" />
    <path
       fill="#d9ab5e"
       d="m 198.89844,108.34766 44.91406,44.85546 c 0.38672,1.80469 0.6875,3.62891 0.89844,5.46094 l -51.28125,-51.21093 c 1.83593,0.21093 3.66015,0.50781 5.46875,0.89453 z m 0,0"
       fill-opacity="1"
       fill-rule="nonzero"
       id="path742" />
    <path
       fill="#d9ab5e"
       d="m 220.80078,118.03906 13.30859,13.29297 c 2.41016,3.33203 4.44141,6.88281 6.09375,10.64844 l -30.07031,-30.02734 c 3.77344,1.65234 7.32813,3.67968 10.66797,6.08593 z m 0,0"
       fill-opacity="1"
       fill-rule="nonzero"
       id="path744" />
    <path
       fill="#cbbcdc"
       d="m 258.95703,126.09766 c 0,1.15625 -0.0547,2.3125 -0.16797,3.46484 -0.11328,1.15234 -0.28515,2.29687 -0.51172,3.42969 -0.22656,1.13672 -0.50781,2.25781 -0.84375,3.36718 -0.33593,1.10547 -0.72656,2.19532 -1.16797,3.26172 -0.44531,1.07032 -0.9414,2.11719 -1.48437,3.13672 -0.54688,1.01953 -1.14453,2.01172 -1.78516,2.97656 -0.64453,0.96094 -1.33593,1.89063 -2.07031,2.78516 -0.73437,0.89453 -1.51172,1.75 -2.33203,2.57031 -0.82031,0.81641 -1.67969,1.59375 -2.57422,2.32813 -0.89453,0.73437 -1.82422,1.42187 -2.78906,2.0664 -0.96485,0.64454 -1.95703,1.23829 -2.98047,1.78125 -1.01953,0.54688 -2.06641,1.04297 -3.13672,1.48438 -1.07031,0.44141 -2.16016,0.83203 -3.26953,1.16797 -1.10938,0.33594 -2.23438,0.61719 -3.37109,0.84375 -1.13672,0.22656 -2.28125,0.39453 -3.4336,0.50781 -1.15625,0.11328 -2.3125,0.17188 -3.46875,0.17188 -1.16015,0 -2.3164,-0.0586 -3.46875,-0.17188 -1.15625,-0.11328 -2.30078,-0.28125 -3.4375,-0.50781 -1.13672,-0.22656 -2.25781,-0.50781 -3.36719,-0.84375 -1.10937,-0.33594 -2.19921,-0.72656 -3.26953,-1.16797 -1.07031,-0.44141 -2.11718,-0.9375 -3.14062,-1.48438 -1.02344,-0.54296 -2.01563,-1.13671 -2.98047,-1.78125 -0.96094,-0.64453 -1.89063,-1.33203 -2.78906,-2.0664 -0.89453,-0.73438 -1.75391,-1.51172 -2.57032,-2.32813 -0.82031,-0.82031 -1.59765,-1.67578 -2.33593,-2.57031 -0.73438,-0.89453 -1.42188,-1.82422 -2.06641,-2.78516 -0.64453,-0.96484 -1.23828,-1.95703 -1.78516,-2.97656 -0.54687,-1.01953 -1.04296,-2.0664 -1.48437,-3.13672 -0.44531,-1.0664 -0.83594,-2.15625 -1.17188,-3.26172 -0.33593,-1.10937 -0.61718,-2.23046 -0.84375,-3.36718 -0.22656,-1.13282 -0.39453,-2.27735 -0.50781,-3.42969 -0.11328,-1.15234 -0.17187,-2.30859 -0.17187,-3.46484 0,-1.15625 0.0586,-2.3125 0.17187,-3.46485 0.11328,-1.15234 0.28125,-2.29297 0.50781,-3.42968 0.22657,-1.13672 0.50782,-2.25782 0.84375,-3.36329 0.33594,-1.10937 0.72657,-2.19531 1.17188,-3.26562 0.44141,-1.07031 0.9375,-2.11328 1.48437,-3.13672 0.54688,-1.01953 1.14063,-2.01172 1.78516,-2.97266 0.64453,-0.96484 1.33203,-1.89062 2.06641,-2.78906 0.73828,-0.89453 1.51562,-1.75 2.33593,-2.5664 0.81641,-0.82032 1.67579,-1.597661 2.57032,-2.332036 0.89843,-0.734375 1.82812,-1.421875 2.78906,-2.066406 0.96484,-0.640626 1.95703,-1.234376 2.98047,-1.78125 1.02344,-0.546876 2.07031,-1.039063 3.14062,-1.484376 1.07032,-0.441406 2.16016,-0.832031 3.26953,-1.167968 1.10938,-0.335938 2.23047,-0.617188 3.36719,-0.84375 1.13672,-0.222656 2.28125,-0.394532 3.4375,-0.507813 1.15235,-0.113281 2.3086,-0.167969 3.46875,-0.167969 1.15625,0 2.3125,0.05469 3.46875,0.167969 1.15235,0.113281 2.29688,0.285157 3.4336,0.507813 1.13671,0.226562 2.26171,0.507812 3.37109,0.84375 1.10937,0.335937 2.19922,0.726562 3.26953,1.167968 1.07031,0.445313 2.11719,0.9375 3.13672,1.484376 1.02344,0.546874 2.01562,1.140624 2.98047,1.78125 0.96484,0.644531 1.89453,1.332031 2.78906,2.066406 0.89453,0.734375 1.75391,1.511716 2.57422,2.332036 0.82031,0.8164 1.59766,1.67187 2.33203,2.5664 0.73438,0.89844 1.42578,1.82422 2.07031,2.78906 0.64063,0.96094 1.23828,1.95313 1.78516,2.97266 0.54297,1.02344 1.03906,2.06641 1.48437,3.13672 0.44141,1.07031 0.83204,2.15625 1.16797,3.26562 0.33594,1.10547 0.61719,2.22657 0.84375,3.36329 0.22657,1.13671 0.39844,2.27734 0.51172,3.42968 0.11328,1.15235 0.16797,2.3086 0.16797,3.46485 z m 0,0"
       fill-opacity="1"
       fill-rule="nonzero"
       id="path746" />
    <g
       clip-path="url(#e83e0a7208)"
       id="g750">
      <path
         fill="#cbbcdc"
         d="m 249.46094,271.67969 c -0.97657,0 -1.95313,-0.0312 -2.92969,-0.0937 -0.97656,-0.0586 -1.94922,-0.15235 -2.91797,-0.27344 -0.96875,-0.11719 -1.9375,-0.26953 -2.89844,-0.44922 -0.96093,-0.17969 -1.91406,-0.38672 -2.86328,-0.625 -0.94922,-0.23828 -1.88672,-0.50391 -2.82031,-0.80078 -0.92969,-0.29688 -1.85156,-0.62109 -2.76563,-0.97266 -0.91015,-0.35156 -1.8125,-0.73047 -2.69921,-1.13672 -0.89063,-0.41015 -1.76563,-0.84375 -2.62891,-1.30468 -0.85938,-0.46094 -1.70703,-0.94532 -2.53906,-1.45703 -0.83203,-0.51563 -1.64844,-1.05079 -2.44922,-1.61329 -0.79688,-0.5625 -1.57813,-1.14843 -2.34375,-1.76171 -0.76172,-0.60938 -1.50781,-1.24219 -2.23047,-1.89844 -0.72656,-0.65625 -1.42969,-1.33203 -2.10938,-2.03125 -0.68359,-0.69922 -1.34375,-1.41797 -1.98437,-2.15625 -0.63672,-0.74219 -1.25391,-1.5 -1.84766,-2.27735 -0.58984,-0.77734 -1.15625,-1.57031 -1.70312,-2.38281 -0.54297,-0.8125 -1.0586,-1.63672 -1.55078,-2.48047 -0.4961,-0.84375 -0.96094,-1.70312 -1.39844,-2.57422 -0.44141,-0.87109 -0.85547,-1.75781 -1.24219,-2.65625 -0.38281,-0.89453 -0.74219,-1.80468 -1.07031,-2.72265 -0.33203,-0.91797 -0.63281,-1.84766 -0.90625,-2.78516 -0.27344,-0.9375 -0.51563,-1.88281 -0.73047,-2.83594 -0.21484,-0.95312 -0.40234,-1.91015 -0.55859,-2.875 -0.15235,-0.96484 -0.28125,-1.93359 -0.37891,-2.90234 -0.0937,-0.97266 -0.16016,-1.94531 -0.19922,-2.92187 -0.0352,-0.97657 -0.043,-1.95313 -0.0195,-2.92969 0.0234,-0.97656 0.0742,-1.94922 0.15625,-2.92188 0.0859,-0.97265 0.19531,-1.9414 0.33984,-2.91015 0.14063,-0.96485 0.3125,-1.92578 0.51563,-2.88282 0.19922,-0.95312 0.42969,-1.90234 0.69141,-2.84375 0.25781,-0.9414 0.54687,-1.875 0.86328,-2.79687 0.3164,-0.92578 0.66015,-1.83984 1.03515,-2.74219 0.3711,-0.90234 0.76953,-1.79297 1.19922,-2.67187 0.42578,-0.875 0.88281,-1.74219 1.36328,-2.58985 0.48047,-0.85156 0.98438,-1.6875 1.51563,-2.50781 0.53125,-0.81641 1.08984,-1.62109 1.66797,-2.40625 0.58203,-0.78516 1.1875,-1.55078 1.8164,-2.30078 0.625,-0.75 1.27735,-1.47656 1.94922,-2.18359 0.67188,-0.71094 1.36719,-1.39844 2.08203,-2.0625 0.71485,-0.66797 1.44922,-1.3125 2.20313,-1.9336 0.7539,-0.62109 1.52734,-1.21875 2.32031,-1.79297 0.78906,-0.57031 1.59766,-1.12109 2.42188,-1.64453 0.82421,-0.52734 1.66796,-1.02344 2.51953,-1.49609 0.85547,-0.47266 1.72656,-0.92188 2.60937,-1.33985 0.88281,-0.42187 1.77735,-0.8125 2.6836,-1.17578 0.90625,-0.36718 1.82421,-0.70312 2.7539,-1.01172 0.92578,-0.30859 1.86328,-0.58984 2.8086,-0.83984 0.94531,-0.25391 1.89453,-0.47656 2.85156,-0.66797 0.96094,-0.19531 1.92187,-0.35937 2.89062,-0.49219 0.96875,-0.13281 1.94141,-0.23828 2.91797,-0.3125 0.97266,-0.0781 1.94922,-0.12109 2.92578,-0.13671 0.98047,-0.0156 1.95703,0 2.9336,0.043 0.97656,0.0469 1.94922,0.1211 2.92187,0.22657 0.97266,0.10156 1.94141,0.23828 2.90625,0.40234 0.96485,0.16016 1.92188,0.35547 2.875,0.57813 0.94922,0.22265 1.89453,0.47265 2.83203,0.7539 0.9375,0.27735 1.86328,0.58594 2.78125,0.92188 0.91797,0.33984 1.82422,0.70312 2.71875,1.09375 0.89453,0.39453 1.77735,0.8125 2.64844,1.25781 0.87109,0.44922 1.72656,0.92187 2.56641,1.41797 0.83984,0.5 1.66406,1.02344 2.47265,1.57422 0.8086,0.54687 1.60157,1.12109 2.375,1.71875 0.76953,0.59765 1.52735,1.21875 2.26172,1.86328 0.73438,0.64062 1.44922,1.30859 2.14453,1.99609 0.69532,0.6875 1.36719,1.39453 2.01563,2.125 0.65234,0.72656 1.28125,1.47656 1.88672,2.24219 0.60547,0.76562 1.18359,1.55078 1.74218,2.35547 0.55469,0.80078 1.08594,1.62109 1.59375,2.45703 0.50782,0.83594 0.98829,1.68359 1.44141,2.54687 0.45313,0.86719 0.88281,1.74219 1.28125,2.63672 0.40234,0.89063 0.77344,1.79297 1.12109,2.70313 0.34375,0.91406 0.66016,1.83984 0.94922,2.76953 0.28907,0.93359 0.55078,1.875 0.78125,2.82422 0.23047,0.94922 0.42969,1.90625 0.60157,2.86719 0.17187,0.96093 0.3164,1.92578 0.42968,2.89453 0.11328,0.96875 0.19532,1.9414 0.25,2.91797 0.0508,0.97656 0.0742,1.94921 0.0664,2.92578 -0.004,0.97656 -0.043,1.95312 -0.10938,2.92578 -0.0664,0.97656 -0.16015,1.94531 -0.28906,2.91406 -0.125,0.96875 -0.28125,1.93359 -0.46484,2.89063 -0.1875,0.96093 -0.40235,1.91406 -0.64453,2.85937 -0.24219,0.94531 -0.51563,1.88281 -0.81641,2.80859 -0.30078,0.92969 -0.63281,1.85157 -0.98828,2.75782 -0.35938,0.91015 -0.74219,1.80468 -1.15625,2.6914 -0.41406,0.88672 -0.85156,1.75782 -1.32031,2.61719 -0.46485,0.85547 -0.95703,1.69922 -1.47657,2.52734 -0.51562,0.82813 -1.05859,1.64063 -1.6289,2.4375 -0.56641,0.79297 -1.15625,1.57032 -1.77344,2.32813 -0.61328,0.75781 -1.25391,1.5 -1.91406,2.21875 -0.66016,0.71875 -1.34375,1.41797 -2.04688,2.09766 -0.70312,0.67578 -1.42578,1.33203 -2.17187,1.96484 -0.74219,0.63281 -1.50781,1.24609 -2.28906,1.83203 -0.78125,0.58594 -1.57813,1.14844 -2.39454,1.6875 -0.8164,0.53906 -1.64843,1.05078 -2.49609,1.53906 -0.84766,0.48438 -1.70703,0.94532 -2.58203,1.37891 -0.87891,0.4375 -1.76563,0.84375 -2.66797,1.22266 -5.96875,2.52343 -12.19922,3.78125 -18.68359,3.76953 z m 0,-88.9961 c -22.67188,0 -41.1211,18.41797 -41.1211,41.06641 0,22.64453 18.44532,41.06641 41.1211,41.06641 22.67578,0 41.125,-18.42188 41.125,-41.06641 0,-22.64844 -18.44922,-41.06641 -41.125,-41.06641 z m 0,0"
         fill-opacity="1"
         fill-rule="nonzero"
         id="path748" />
    </g>
  </g>
</svg>
