<svg xmlns="http://www.w3.org/2000/svg" xmlns:xlink="http://www.w3.org/1999/xlink" width="500" zoomAndPan="magnify" viewBox="0 0 375 374.999991" height="500" preserveAspectRatio="xMidYMid meet" version="1.0"><defs><clipPath id="46204a4d27"><path d="M 91.800781 137 L 209 137 L 209 255 L 91.800781 255 Z M 91.800781 137 " clip-rule="nonzero"/></clipPath><clipPath id="e83e0a7208"><path d="M 201 176 L 298 176 L 298 271.691406 L 201 271.691406 Z M 201 176 " clip-rule="nonzero"/></clipPath></defs><g clip-path="url(#46204a4d27)"><path fill="#bed4eb" d="M 208.707031 195.972656 C 208.707031 197.882812 208.613281 199.789062 208.425781 201.691406 C 208.238281 203.59375 207.957031 205.480469 207.585938 207.355469 C 207.210938 209.230469 206.746094 211.082031 206.191406 212.910156 C 205.636719 214.738281 204.992188 216.535156 204.261719 218.300781 C 203.527344 220.066406 202.710938 221.792969 201.808594 223.476562 C 200.90625 225.164062 199.925781 226.800781 198.859375 228.390625 C 197.796875 229.976562 196.660156 231.511719 195.445312 232.988281 C 194.230469 234.464844 192.949219 235.878906 191.59375 237.230469 C 190.242188 238.582031 188.824219 239.863281 187.347656 241.078125 C 185.867188 242.289062 184.332031 243.425781 182.742188 244.488281 C 181.148438 245.550781 179.511719 246.53125 177.824219 247.429688 C 176.136719 248.332031 174.40625 249.148438 172.640625 249.878906 C 170.871094 250.609375 169.070312 251.253906 167.242188 251.808594 C 165.410156 252.363281 163.554688 252.828125 161.679688 253.199219 C 159.800781 253.574219 157.910156 253.851562 156.007812 254.039062 C 154.101562 254.226562 152.195312 254.320312 150.28125 254.320312 C 148.367188 254.320312 146.457031 254.226562 144.554688 254.039062 C 142.648438 253.851562 140.757812 253.574219 138.882812 253.199219 C 137.003906 252.828125 135.152344 252.363281 133.320312 251.808594 C 131.488281 251.253906 129.6875 250.609375 127.921875 249.878906 C 126.152344 249.148438 124.425781 248.332031 122.738281 247.429688 C 121.050781 246.53125 119.410156 245.550781 117.820312 244.488281 C 116.226562 243.425781 114.691406 242.289062 113.214844 241.078125 C 111.734375 239.863281 110.320312 238.582031 108.964844 237.230469 C 107.613281 235.878906 106.328125 234.464844 105.113281 232.988281 C 103.902344 231.511719 102.761719 229.976562 101.699219 228.390625 C 100.636719 226.800781 99.652344 225.164062 98.75 223.476562 C 97.847656 221.792969 97.03125 220.066406 96.300781 218.300781 C 95.566406 216.535156 94.921875 214.738281 94.367188 212.910156 C 93.8125 211.082031 93.347656 209.230469 92.976562 207.355469 C 92.601562 205.480469 92.320312 203.59375 92.132812 201.691406 C 91.945312 199.789062 91.851562 197.882812 91.851562 195.972656 C 91.851562 194.0625 91.945312 192.152344 92.132812 190.253906 C 92.320312 188.351562 92.601562 186.460938 92.976562 184.589844 C 93.347656 182.714844 93.8125 180.863281 94.367188 179.035156 C 94.921875 177.203125 95.566406 175.40625 96.300781 173.640625 C 97.03125 171.875 97.847656 170.152344 98.75 168.464844 C 99.652344 166.78125 100.636719 165.144531 101.699219 163.554688 C 102.761719 161.964844 103.902344 160.433594 105.113281 158.957031 C 106.328125 157.476562 107.613281 156.0625 108.964844 154.710938 C 110.320312 153.359375 111.734375 152.078125 113.214844 150.867188 C 114.691406 149.65625 116.226562 148.515625 117.820312 147.457031 C 119.410156 146.394531 121.050781 145.414062 122.738281 144.511719 C 124.425781 143.609375 126.152344 142.796875 127.921875 142.0625 C 129.6875 141.332031 131.488281 140.691406 133.320312 140.132812 C 135.152344 139.578125 137.003906 139.117188 138.882812 138.742188 C 140.757812 138.371094 142.648438 138.089844 144.554688 137.902344 C 146.457031 137.714844 148.367188 137.621094 150.28125 137.621094 C 152.195312 137.621094 154.101562 137.714844 156.007812 137.902344 C 157.910156 138.089844 159.800781 138.371094 161.679688 138.742188 C 163.554688 139.117188 165.410156 139.578125 167.242188 140.132812 C 169.070312 140.691406 170.871094 141.332031 172.640625 142.0625 C 174.40625 142.796875 176.136719 143.609375 177.824219 144.511719 C 179.511719 145.414062 181.148438 146.394531 182.742188 147.457031 C 184.332031 148.515625 185.867188 149.65625 187.347656 150.867188 C 188.824219 152.078125 190.242188 153.359375 191.59375 154.710938 C 192.949219 156.0625 194.230469 157.476562 195.445312 158.957031 C 196.660156 160.433594 197.796875 161.964844 198.859375 163.554688 C 199.925781 165.144531 200.90625 166.78125 201.808594 168.464844 C 202.710938 170.152344 203.527344 171.875 204.261719 173.640625 C 204.992188 175.40625 205.636719 177.203125 206.191406 179.035156 C 206.746094 180.863281 207.210938 182.714844 207.585938 184.589844 C 207.957031 186.460938 208.238281 188.351562 208.425781 190.253906 C 208.613281 192.152344 208.707031 194.0625 208.707031 195.972656 Z M 208.707031 195.972656 " fill-opacity="1" fill-rule="nonzero"/></g><path fill="#312940" d="M 176.050781 252.929688 C 176.050781 253.964844 175.949219 254.988281 175.746094 256.007812 C 175.546875 257.023438 175.246094 258.007812 174.847656 258.964844 C 174.453125 259.921875 173.964844 260.832031 173.386719 261.695312 C 172.8125 262.554688 172.15625 263.351562 171.421875 264.085938 C 170.691406 264.816406 169.890625 265.472656 169.027344 266.046875 C 168.167969 266.621094 167.257812 267.109375 166.296875 267.503906 C 165.339844 267.902344 164.351562 268.199219 163.332031 268.402344 C 162.316406 268.605469 161.289062 268.707031 160.25 268.707031 C 159.214844 268.707031 158.1875 268.605469 157.167969 268.402344 C 156.152344 268.199219 155.164062 267.902344 154.203125 267.503906 C 153.246094 267.109375 152.335938 266.621094 151.472656 266.046875 C 150.609375 265.472656 149.8125 264.816406 149.078125 264.085938 C 148.347656 263.351562 147.691406 262.554688 147.113281 261.695312 C 146.539062 260.832031 146.050781 259.921875 145.65625 258.964844 C 145.257812 258.007812 144.957031 257.023438 144.753906 256.007812 C 144.554688 254.988281 144.453125 253.964844 144.453125 252.929688 C 144.453125 251.890625 144.554688 250.867188 144.753906 249.851562 C 144.957031 248.832031 145.257812 247.847656 145.65625 246.890625 C 146.050781 245.933594 146.539062 245.023438 147.113281 244.160156 C 147.691406 243.300781 148.347656 242.503906 149.078125 241.769531 C 149.8125 241.039062 150.609375 240.382812 151.472656 239.808594 C 152.335938 239.234375 153.246094 238.746094 154.203125 238.351562 C 155.164062 237.953125 156.152344 237.65625 157.167969 237.453125 C 158.1875 237.25 159.214844 237.148438 160.25 237.148438 C 161.289062 237.148438 162.316406 237.25 163.332031 237.453125 C 164.351562 237.65625 165.339844 237.953125 166.296875 238.351562 C 167.257812 238.746094 168.167969 239.234375 169.027344 239.808594 C 169.890625 240.382812 170.691406 241.039062 171.421875 241.769531 C 172.15625 242.503906 172.8125 243.300781 173.386719 244.160156 C 173.964844 245.023438 174.453125 245.933594 174.847656 246.890625 C 175.246094 247.847656 175.546875 248.832031 175.746094 249.851562 C 175.949219 250.867188 176.050781 251.890625 176.050781 252.929688 Z M 176.050781 252.929688 " fill-opacity="1" fill-rule="nonzero"/><path fill="#312940" d="M 257.222656 223.746094 C 257.222656 224.253906 257.175781 224.761719 257.074219 225.257812 C 256.976562 225.757812 256.828125 226.242188 256.632812 226.714844 C 256.4375 227.183594 256.199219 227.628906 255.917969 228.054688 C 255.632812 228.476562 255.3125 228.867188 254.949219 229.226562 C 254.589844 229.585938 254.199219 229.910156 253.773438 230.191406 C 253.351562 230.472656 252.902344 230.714844 252.433594 230.90625 C 251.960938 231.101562 251.476562 231.25 250.976562 231.347656 C 250.476562 231.449219 249.972656 231.5 249.460938 231.5 C 248.953125 231.5 248.449219 231.449219 247.949219 231.347656 C 247.449219 231.25 246.964844 231.101562 246.492188 230.90625 C 246.023438 230.714844 245.574219 230.472656 245.152344 230.191406 C 244.726562 229.910156 244.335938 229.585938 243.972656 229.226562 C 243.613281 228.867188 243.292969 228.476562 243.007812 228.054688 C 242.726562 227.628906 242.488281 227.183594 242.292969 226.714844 C 242.097656 226.242188 241.949219 225.757812 241.851562 225.257812 C 241.75 224.761719 241.699219 224.253906 241.699219 223.746094 C 241.699219 223.238281 241.75 222.734375 241.851562 222.234375 C 241.949219 221.734375 242.097656 221.25 242.292969 220.78125 C 242.488281 220.308594 242.726562 219.863281 243.007812 219.441406 C 243.292969 219.015625 243.613281 218.625 243.972656 218.265625 C 244.335938 217.90625 244.726562 217.585938 245.152344 217.300781 C 245.574219 217.019531 246.023438 216.78125 246.492188 216.585938 C 246.964844 216.390625 247.449219 216.242188 247.949219 216.144531 C 248.449219 216.046875 248.953125 215.996094 249.460938 215.996094 C 249.972656 215.996094 250.476562 216.046875 250.976562 216.144531 C 251.476562 216.242188 251.960938 216.390625 252.433594 216.585938 C 252.902344 216.78125 253.351562 217.019531 253.773438 217.300781 C 254.199219 217.585938 254.589844 217.90625 254.949219 218.265625 C 255.3125 218.625 255.632812 219.015625 255.917969 219.441406 C 256.199219 219.863281 256.4375 220.308594 256.632812 220.78125 C 256.828125 221.25 256.976562 221.734375 257.074219 222.234375 C 257.175781 222.734375 257.222656 223.238281 257.222656 223.746094 Z M 257.222656 223.746094 " fill-opacity="1" fill-rule="nonzero"/><path fill="#bed4eb" d="M 153.484375 125.933594 C 152.183594 125.933594 150.890625 125.839844 149.605469 125.648438 C 148.320312 125.457031 147.054688 125.175781 145.808594 124.796875 C 144.566406 124.421875 143.355469 123.953125 142.183594 123.398438 C 141.007812 122.84375 139.878906 122.207031 138.796875 121.484375 C 137.71875 120.761719 136.695312 119.96875 135.730469 119.09375 C 134.769531 118.222656 133.875 117.285156 133.050781 116.28125 C 132.226562 115.277344 131.480469 114.21875 130.808594 113.105469 C 130.140625 111.992188 129.558594 110.835938 129.0625 109.636719 C 128.5625 108.4375 128.15625 107.207031 127.839844 105.949219 C 127.527344 104.691406 127.304688 103.414062 127.175781 102.121094 C 127.050781 100.832031 127.015625 99.535156 127.082031 98.238281 C 127.144531 96.941406 127.304688 95.65625 127.558594 94.382812 C 127.8125 93.109375 128.15625 91.863281 128.59375 90.640625 C 129.03125 89.417969 129.558594 88.234375 130.171875 87.089844 C 130.785156 85.945312 131.476562 84.851562 132.25 83.808594 C 133.027344 82.765625 133.871094 81.785156 134.792969 80.867188 C 135.40625 80.265625 136.046875 79.691406 136.71875 79.152344 C 137.386719 78.609375 138.082031 78.101562 138.800781 77.628906 C 139.519531 77.15625 140.261719 76.71875 141.023438 76.320312 C 141.785156 75.917969 142.566406 75.554688 143.363281 75.230469 C 144.160156 74.90625 144.972656 74.621094 145.800781 74.375 C 146.625 74.128906 147.460938 73.925781 148.308594 73.761719 C 149.152344 73.597656 150.003906 73.476562 150.863281 73.394531 C 151.71875 73.3125 152.578125 73.277344 153.441406 73.277344 C 154.300781 73.28125 155.160156 73.328125 156.019531 73.414062 C 156.875 73.5 157.726562 73.628906 158.570312 73.800781 C 159.414062 73.972656 160.25 74.183594 161.074219 74.433594 C 161.898438 74.683594 162.707031 74.976562 163.503906 75.308594 C 164.296875 75.636719 165.074219 76.007812 165.832031 76.414062 C 166.59375 76.820312 167.332031 77.261719 168.046875 77.742188 C 168.761719 78.21875 169.453125 78.730469 170.117188 79.277344 C 170.785156 79.824219 171.421875 80.402344 172.03125 81.011719 C 172.640625 81.617188 173.21875 82.253906 173.765625 82.917969 C 174.3125 83.585938 174.824219 84.273438 175.304688 84.988281 C 175.785156 85.703125 176.226562 86.441406 176.632812 87.199219 C 177.042969 87.957031 177.410156 88.734375 177.742188 89.527344 C 178.074219 90.320312 178.363281 91.128906 178.617188 91.953125 C 178.871094 92.777344 179.082031 93.609375 179.25 94.453125 C 179.421875 95.296875 179.550781 96.144531 179.636719 97 C 179.726562 97.855469 179.769531 98.714844 179.773438 99.574219 C 179.777344 100.433594 179.738281 101.292969 179.660156 102.152344 C 179.578125 103.007812 179.457031 103.859375 179.292969 104.703125 C 179.128906 105.546875 178.921875 106.382812 178.675781 107.207031 C 178.429688 108.03125 178.144531 108.839844 177.820312 109.636719 C 177.496094 110.433594 177.132812 111.214844 176.730469 111.976562 C 176.332031 112.738281 175.894531 113.476562 175.417969 114.195312 C 174.945312 114.914062 174.4375 115.609375 173.894531 116.277344 C 173.355469 116.945312 172.78125 117.585938 172.175781 118.199219 C 170.953125 119.429688 169.617188 120.527344 168.175781 121.492188 C 166.734375 122.457031 165.210938 123.273438 163.605469 123.9375 C 162 124.601562 160.347656 125.101562 158.644531 125.4375 C 156.941406 125.773438 155.21875 125.9375 153.484375 125.933594 Z M 153.484375 78.042969 C 141.617188 78.042969 131.964844 87.683594 131.964844 99.53125 C 131.964844 111.382812 141.617188 121.023438 153.484375 121.023438 C 165.351562 121.023438 175.003906 111.382812 175.003906 99.53125 C 175.003906 87.683594 165.351562 78.042969 153.484375 78.042969 Z M 153.484375 78.042969 " fill-opacity="1" fill-rule="nonzero"/><path fill="#d9ab5e" d="M 273.6875 168.511719 C 267.074219 168.511719 261.695312 163.136719 261.695312 156.535156 C 261.695312 149.929688 267.074219 144.554688 273.6875 144.554688 C 280.300781 144.554688 285.683594 149.929688 285.683594 156.535156 C 285.683594 163.136719 280.300781 168.511719 273.6875 168.511719 Z M 273.6875 147.5 C 268.703125 147.5 264.640625 151.550781 264.640625 156.535156 C 264.640625 161.515625 268.699219 165.566406 273.6875 165.566406 C 278.679688 165.566406 282.734375 161.515625 282.734375 156.535156 C 282.734375 151.550781 278.675781 147.5 273.6875 147.5 Z M 273.6875 147.5 " fill-opacity="1" fill-rule="nonzero"/><path fill="#d9ab5e" d="M 133.144531 188.839844 L 163.214844 218.867188 C 159.441406 217.21875 155.886719 215.1875 152.546875 212.785156 L 139.238281 199.492188 C 136.828125 196.15625 134.796875 192.605469 133.144531 188.839844 Z M 133.144531 188.839844 " fill-opacity="1" fill-rule="nonzero"/><path fill="#d9ab5e" d="M 128.636719 172.15625 L 179.921875 223.371094 C 178.085938 223.160156 176.261719 222.859375 174.449219 222.472656 L 129.535156 177.621094 C 129.148438 175.8125 128.847656 173.992188 128.636719 172.15625 Z M 128.636719 172.15625 " fill-opacity="1" fill-rule="nonzero"/><path fill="#d9ab5e" d="M 128.511719 159.851562 L 192.242188 223.496094 C 190.804688 223.632812 189.363281 223.714844 187.917969 223.746094 L 128.261719 164.167969 C 128.289062 162.726562 128.375 161.285156 128.511719 159.851562 Z M 128.511719 159.851562 " fill-opacity="1" fill-rule="nonzero"/><path fill="#d9ab5e" d="M 130.425781 149.585938 L 202.523438 221.582031 C 201.308594 221.925781 200.082031 222.226562 198.851562 222.484375 L 129.523438 153.25 C 129.785156 152.019531 130.085938 150.796875 130.425781 149.585938 Z M 130.425781 149.585938 " fill-opacity="1" fill-rule="nonzero"/><path fill="#d9ab5e" d="M 133.726562 140.703125 L 211.417969 218.285156 C 210.363281 218.78125 209.296875 219.238281 208.222656 219.664062 L 132.351562 143.894531 C 132.777344 142.820312 133.234375 141.753906 133.726562 140.703125 Z M 133.726562 140.703125 " fill-opacity="1" fill-rule="nonzero"/><path fill="#d9ab5e" d="M 138.132812 132.917969 L 219.210938 213.890625 C 218.289062 214.507812 217.355469 215.097656 216.40625 215.65625 L 136.359375 135.722656 C 136.921875 134.773438 137.511719 133.839844 138.132812 132.917969 Z M 138.132812 132.917969 " fill-opacity="1" fill-rule="nonzero"/><path fill="#d9ab5e" d="M 143.496094 126.097656 L 226.039062 208.53125 C 225.238281 209.261719 224.421875 209.964844 223.585938 210.648438 L 141.378906 128.550781 C 142.058594 127.71875 142.765625 126.902344 143.496094 126.097656 Z M 143.496094 126.097656 " fill-opacity="1" fill-rule="nonzero"/><path fill="#d9ab5e" d="M 149.765625 120.175781 L 231.972656 202.273438 C 231.292969 203.105469 230.585938 203.921875 229.851562 204.722656 L 147.308594 122.292969 C 148.109375 121.558594 148.929688 120.855469 149.765625 120.175781 Z M 149.765625 120.175781 " fill-opacity="1" fill-rule="nonzero"/><path fill="#d9ab5e" d="M 156.941406 115.164062 L 236.992188 195.109375 C 236.429688 196.054688 235.839844 196.988281 235.222656 197.90625 L 154.144531 116.9375 C 155.0625 116.316406 155.996094 115.726562 156.941406 115.164062 Z M 156.941406 115.164062 " fill-opacity="1" fill-rule="nonzero"/><path fill="#d9ab5e" d="M 165.128906 111.160156 L 240.996094 186.925781 C 240.570312 188.003906 240.113281 189.066406 239.621094 190.117188 L 161.929688 112.535156 C 162.984375 112.042969 164.050781 111.585938 165.128906 111.160156 Z M 165.128906 111.160156 " fill-opacity="1" fill-rule="nonzero"/><path fill="#d9ab5e" d="M 174.496094 108.335938 L 243.824219 177.574219 C 243.5625 178.804688 243.261719 180.027344 242.921875 181.238281 L 170.828125 109.238281 C 172.042969 108.898438 173.265625 108.597656 174.496094 108.335938 Z M 174.496094 108.335938 " fill-opacity="1" fill-rule="nonzero"/><path fill="#d9ab5e" d="M 185.429688 107.074219 L 245.089844 166.652344 C 245.058594 168.09375 244.976562 169.535156 244.835938 170.96875 L 181.109375 107.324219 C 182.546875 107.1875 183.984375 107.105469 185.429688 107.074219 Z M 185.429688 107.074219 " fill-opacity="1" fill-rule="nonzero"/><path fill="#d9ab5e" d="M 198.898438 108.347656 L 243.8125 153.203125 C 244.199219 155.007812 244.5 156.832031 244.710938 158.664062 L 193.429688 107.453125 C 195.265625 107.664062 197.089844 107.960938 198.898438 108.347656 Z M 198.898438 108.347656 " fill-opacity="1" fill-rule="nonzero"/><path fill="#d9ab5e" d="M 220.800781 118.039062 L 234.109375 131.332031 C 236.519531 134.664062 238.550781 138.214844 240.203125 141.980469 L 210.132812 111.953125 C 213.90625 113.605469 217.460938 115.632812 220.800781 118.039062 Z M 220.800781 118.039062 " fill-opacity="1" fill-rule="nonzero"/><path fill="#cbbcdc" d="M 258.957031 126.097656 C 258.957031 127.253906 258.902344 128.410156 258.789062 129.5625 C 258.675781 130.714844 258.503906 131.859375 258.277344 132.992188 C 258.050781 134.128906 257.769531 135.25 257.433594 136.359375 C 257.097656 137.464844 256.707031 138.554688 256.265625 139.621094 C 255.820312 140.691406 255.324219 141.738281 254.78125 142.757812 C 254.234375 143.777344 253.636719 144.769531 252.996094 145.734375 C 252.351562 146.695312 251.660156 147.625 250.925781 148.519531 C 250.191406 149.414062 249.414062 150.269531 248.59375 151.089844 C 247.773438 151.90625 246.914062 152.683594 246.019531 153.417969 C 245.125 154.152344 244.195312 154.839844 243.230469 155.484375 C 242.265625 156.128906 241.273438 156.722656 240.25 157.265625 C 239.230469 157.8125 238.183594 158.308594 237.113281 158.75 C 236.042969 159.191406 234.953125 159.582031 233.84375 159.917969 C 232.734375 160.253906 231.609375 160.535156 230.472656 160.761719 C 229.335938 160.988281 228.191406 161.15625 227.039062 161.269531 C 225.882812 161.382812 224.726562 161.441406 223.570312 161.441406 C 222.410156 161.441406 221.253906 161.382812 220.101562 161.269531 C 218.945312 161.15625 217.800781 160.988281 216.664062 160.761719 C 215.527344 160.535156 214.40625 160.253906 213.296875 159.917969 C 212.1875 159.582031 211.097656 159.191406 210.027344 158.75 C 208.957031 158.308594 207.910156 157.8125 206.886719 157.265625 C 205.863281 156.722656 204.871094 156.128906 203.90625 155.484375 C 202.945312 154.839844 202.015625 154.152344 201.117188 153.417969 C 200.222656 152.683594 199.363281 151.90625 198.546875 151.089844 C 197.726562 150.269531 196.949219 149.414062 196.210938 148.519531 C 195.476562 147.625 194.789062 146.695312 194.144531 145.734375 C 193.5 144.769531 192.90625 143.777344 192.359375 142.757812 C 191.8125 141.738281 191.316406 140.691406 190.875 139.621094 C 190.429688 138.554688 190.039062 137.464844 189.703125 136.359375 C 189.367188 135.25 189.085938 134.128906 188.859375 132.992188 C 188.632812 131.859375 188.464844 130.714844 188.351562 129.5625 C 188.238281 128.410156 188.179688 127.253906 188.179688 126.097656 C 188.179688 124.941406 188.238281 123.785156 188.351562 122.632812 C 188.464844 121.480469 188.632812 120.339844 188.859375 119.203125 C 189.085938 118.066406 189.367188 116.945312 189.703125 115.839844 C 190.039062 114.730469 190.429688 113.644531 190.875 112.574219 C 191.316406 111.503906 191.8125 110.460938 192.359375 109.4375 C 192.90625 108.417969 193.5 107.425781 194.144531 106.464844 C 194.789062 105.5 195.476562 104.574219 196.210938 103.675781 C 196.949219 102.78125 197.726562 101.925781 198.546875 101.109375 C 199.363281 100.289062 200.222656 99.511719 201.117188 98.777344 C 202.015625 98.042969 202.945312 97.355469 203.90625 96.710938 C 204.871094 96.070312 205.863281 95.476562 206.886719 94.929688 C 207.910156 94.382812 208.957031 93.890625 210.027344 93.445312 C 211.097656 93.003906 212.1875 92.613281 213.296875 92.277344 C 214.40625 91.941406 215.527344 91.660156 216.664062 91.433594 C 217.800781 91.210938 218.945312 91.039062 220.101562 90.925781 C 221.253906 90.8125 222.410156 90.757812 223.570312 90.757812 C 224.726562 90.757812 225.882812 90.8125 227.039062 90.925781 C 228.191406 91.039062 229.335938 91.210938 230.472656 91.433594 C 231.609375 91.660156 232.734375 91.941406 233.84375 92.277344 C 234.953125 92.613281 236.042969 93.003906 237.113281 93.445312 C 238.183594 93.890625 239.230469 94.382812 240.25 94.929688 C 241.273438 95.476562 242.265625 96.070312 243.230469 96.710938 C 244.195312 97.355469 245.125 98.042969 246.019531 98.777344 C 246.914062 99.511719 247.773438 100.289062 248.59375 101.109375 C 249.414062 101.925781 250.191406 102.78125 250.925781 103.675781 C 251.660156 104.574219 252.351562 105.5 252.996094 106.464844 C 253.636719 107.425781 254.234375 108.417969 254.78125 109.4375 C 255.324219 110.460938 255.820312 111.503906 256.265625 112.574219 C 256.707031 113.644531 257.097656 114.730469 257.433594 115.839844 C 257.769531 116.945312 258.050781 118.066406 258.277344 119.203125 C 258.503906 120.339844 258.675781 121.480469 258.789062 122.632812 C 258.902344 123.785156 258.957031 124.941406 258.957031 126.097656 Z M 258.957031 126.097656 " fill-opacity="1" fill-rule="nonzero"/><g clip-path="url(#e83e0a7208)"><path fill="#cbbcdc" d="M 249.460938 271.679688 C 248.484375 271.679688 247.507812 271.648438 246.53125 271.585938 C 245.554688 271.527344 244.582031 271.433594 243.613281 271.3125 C 242.644531 271.195312 241.675781 271.042969 240.714844 270.863281 C 239.753906 270.683594 238.800781 270.476562 237.851562 270.238281 C 236.902344 270 235.964844 269.734375 235.03125 269.4375 C 234.101562 269.140625 233.179688 268.816406 232.265625 268.464844 C 231.355469 268.113281 230.453125 267.734375 229.566406 267.328125 C 228.675781 266.917969 227.800781 266.484375 226.9375 266.023438 C 226.078125 265.5625 225.230469 265.078125 224.398438 264.566406 C 223.566406 264.050781 222.75 263.515625 221.949219 262.953125 C 221.152344 262.390625 220.371094 261.804688 219.605469 261.191406 C 218.84375 260.582031 218.097656 259.949219 217.375 259.292969 C 216.648438 258.636719 215.945312 257.960938 215.265625 257.261719 C 214.582031 256.5625 213.921875 255.84375 213.28125 255.105469 C 212.644531 254.363281 212.027344 253.605469 211.433594 252.828125 C 210.84375 252.050781 210.277344 251.257812 209.730469 250.445312 C 209.1875 249.632812 208.671875 248.808594 208.179688 247.964844 C 207.683594 247.121094 207.21875 246.261719 206.78125 245.390625 C 206.339844 244.519531 205.925781 243.632812 205.539062 242.734375 C 205.15625 241.839844 204.796875 240.929688 204.46875 240.011719 C 204.136719 239.09375 203.835938 238.164062 203.5625 237.226562 C 203.289062 236.289062 203.046875 235.34375 202.832031 234.390625 C 202.617188 233.4375 202.429688 232.480469 202.273438 231.515625 C 202.121094 230.550781 201.992188 229.582031 201.894531 228.613281 C 201.800781 227.640625 201.734375 226.667969 201.695312 225.691406 C 201.660156 224.714844 201.652344 223.738281 201.675781 222.761719 C 201.699219 221.785156 201.75 220.8125 201.832031 219.839844 C 201.917969 218.867188 202.027344 217.898438 202.171875 216.929688 C 202.3125 215.964844 202.484375 215.003906 202.6875 214.046875 C 202.886719 213.09375 203.117188 212.144531 203.378906 211.203125 C 203.636719 210.261719 203.925781 209.328125 204.242188 208.40625 C 204.558594 207.480469 204.902344 206.566406 205.277344 205.664062 C 205.648438 204.761719 206.046875 203.871094 206.476562 202.992188 C 206.902344 202.117188 207.359375 201.25 207.839844 200.402344 C 208.320312 199.550781 208.824219 198.714844 209.355469 197.894531 C 209.886719 197.078125 210.445312 196.273438 211.023438 195.488281 C 211.605469 194.703125 212.210938 193.9375 212.839844 193.1875 C 213.464844 192.4375 214.117188 191.710938 214.789062 191.003906 C 215.460938 190.292969 216.15625 189.605469 216.871094 188.941406 C 217.585938 188.273438 218.320312 187.628906 219.074219 187.007812 C 219.828125 186.386719 220.601562 185.789062 221.394531 185.214844 C 222.183594 184.644531 222.992188 184.09375 223.816406 183.570312 C 224.640625 183.042969 225.484375 182.546875 226.335938 182.074219 C 227.191406 181.601562 228.0625 181.152344 228.945312 180.734375 C 229.828125 180.3125 230.722656 179.921875 231.628906 179.558594 C 232.535156 179.191406 233.453125 178.855469 234.382812 178.546875 C 235.308594 178.238281 236.246094 177.957031 237.191406 177.707031 C 238.136719 177.453125 239.085938 177.230469 240.042969 177.039062 C 241.003906 176.84375 241.964844 176.679688 242.933594 176.546875 C 243.902344 176.414062 244.875 176.308594 245.851562 176.234375 C 246.824219 176.15625 247.800781 176.113281 248.777344 176.097656 C 249.757812 176.082031 250.734375 176.097656 251.710938 176.140625 C 252.6875 176.1875 253.660156 176.261719 254.632812 176.367188 C 255.605469 176.46875 256.574219 176.605469 257.539062 176.769531 C 258.503906 176.929688 259.460938 177.125 260.414062 177.347656 C 261.363281 177.570312 262.308594 177.820312 263.246094 178.101562 C 264.183594 178.378906 265.109375 178.6875 266.027344 179.023438 C 266.945312 179.363281 267.851562 179.726562 268.746094 180.117188 C 269.640625 180.511719 270.523438 180.929688 271.394531 181.375 C 272.265625 181.824219 273.121094 182.296875 273.960938 182.792969 C 274.800781 183.292969 275.625 183.816406 276.433594 184.367188 C 277.242188 184.914062 278.035156 185.488281 278.808594 186.085938 C 279.578125 186.683594 280.335938 187.304688 281.070312 187.949219 C 281.804688 188.589844 282.519531 189.257812 283.214844 189.945312 C 283.910156 190.632812 284.582031 191.339844 285.230469 192.070312 C 285.882812 192.796875 286.511719 193.546875 287.117188 194.3125 C 287.722656 195.078125 288.300781 195.863281 288.859375 196.667969 C 289.414062 197.46875 289.945312 198.289062 290.453125 199.125 C 290.960938 199.960938 291.441406 200.808594 291.894531 201.671875 C 292.347656 202.539062 292.777344 203.414062 293.175781 204.308594 C 293.578125 205.199219 293.949219 206.101562 294.296875 207.011719 C 294.640625 207.925781 294.957031 208.851562 295.246094 209.78125 C 295.535156 210.714844 295.796875 211.65625 296.027344 212.605469 C 296.257812 213.554688 296.457031 214.511719 296.628906 215.472656 C 296.800781 216.433594 296.945312 217.398438 297.058594 218.367188 C 297.171875 219.335938 297.253906 220.308594 297.308594 221.285156 C 297.359375 222.261719 297.382812 223.234375 297.375 224.210938 C 297.371094 225.1875 297.332031 226.164062 297.265625 227.136719 C 297.199219 228.113281 297.105469 229.082031 296.976562 230.050781 C 296.851562 231.019531 296.695312 231.984375 296.511719 232.941406 C 296.324219 233.902344 296.109375 234.855469 295.867188 235.800781 C 295.625 236.746094 295.351562 237.683594 295.050781 238.609375 C 294.75 239.539062 294.417969 240.460938 294.0625 241.367188 C 293.703125 242.277344 293.320312 243.171875 292.90625 244.058594 C 292.492188 244.945312 292.054688 245.816406 291.585938 246.675781 C 291.121094 247.53125 290.628906 248.375 290.109375 249.203125 C 289.59375 250.03125 289.050781 250.84375 288.480469 251.640625 C 287.914062 252.433594 287.324219 253.210938 286.707031 253.96875 C 286.09375 254.726562 285.453125 255.46875 284.792969 256.1875 C 284.132812 256.90625 283.449219 257.605469 282.746094 258.285156 C 282.042969 258.960938 281.320312 259.617188 280.574219 260.25 C 279.832031 260.882812 279.066406 261.496094 278.285156 262.082031 C 277.503906 262.667969 276.707031 263.230469 275.890625 263.769531 C 275.074219 264.308594 274.242188 264.820312 273.394531 265.308594 C 272.546875 265.792969 271.6875 266.253906 270.8125 266.6875 C 269.933594 267.125 269.046875 267.53125 268.144531 267.910156 C 262.175781 270.433594 255.945312 271.691406 249.460938 271.679688 Z M 249.460938 182.683594 C 226.789062 182.683594 208.339844 201.101562 208.339844 223.75 C 208.339844 246.394531 226.785156 264.816406 249.460938 264.816406 C 272.136719 264.816406 290.585938 246.394531 290.585938 223.75 C 290.585938 201.101562 272.136719 182.683594 249.460938 182.683594 Z M 249.460938 182.683594 " fill-opacity="1" fill-rule="nonzero"/></g></svg>