<svg xmlns="http://www.w3.org/2000/svg" xmlns:xlink="http://www.w3.org/1999/xlink" width="500" zoomAndPan="magnify" viewBox="0 0 375 374.999991" height="500" preserveAspectRatio="xMidYMid meet" version="1.0"><defs><clipPath id="3e1e68ff51"><path d="M 112.5 147 L 130 147 L 130 158 L 112.5 158 Z M 112.5 147 " clip-rule="nonzero"/></clipPath><clipPath id="a369209b9e"><path d="M 112.5 219 L 126 219 L 126 230.4375 L 112.5 230.4375 Z M 112.5 219 " clip-rule="nonzero"/></clipPath><clipPath id="da69fabfa0"><path d="M 150 144.9375 L 155 144.9375 L 155 149 L 150 149 Z M 150 144.9375 " clip-rule="nonzero"/></clipPath><clipPath id="44af5b8b61"><path d="M 220 219 L 233 219 L 233 230.4375 L 220 230.4375 Z M 220 219 " clip-rule="nonzero"/></clipPath><clipPath id="7cd513d5ec"><path d="M 258 144.9375 L 262.5 144.9375 L 262.5 149 L 258 149 Z M 258 144.9375 " clip-rule="nonzero"/></clipPath><clipPath id="cfe43c62d4"><path d="M 253 184 L 262.5 184 L 262.5 197 L 253 197 Z M 253 184 " clip-rule="nonzero"/></clipPath></defs><g clip-path="url(#3e1e68ff51)"><path fill="#479ba0" d="M 129.113281 154.433594 C 128.21875 149.84375 124.027344 147.03125 119.476562 147.667969 C 114.863281 148.3125 112.132812 152.972656 112.738281 157.351562 C 112.800781 157.789062 113.308594 157.941406 113.667969 157.878906 C 118.640625 157.042969 123.613281 156.207031 128.585938 155.371094 C 129.546875 155.207031 129.140625 153.746094 128.183594 153.90625 C 123.210938 154.742188 118.242188 155.578125 113.269531 156.417969 C 113.578125 156.59375 113.886719 156.769531 114.199219 156.945312 C 113.671875 153.148438 116.195312 149.859375 119.878906 149.132812 C 123.621094 148.394531 126.964844 151.296875 127.65625 154.839844 C 127.84375 155.800781 129.300781 155.390625 129.113281 154.433594 " fill-opacity="1" fill-rule="nonzero"/></g><path fill="#479ba0" d="M 137.210938 201.726562 C 134.75 200.617188 132.285156 199.507812 129.824219 198.402344 C 128.941406 198.003906 128.171875 199.3125 129.0625 199.714844 C 131.523438 200.820312 133.984375 201.929688 136.449219 203.035156 C 137.332031 203.433594 138.101562 202.125 137.210938 201.726562 " fill-opacity="1" fill-rule="nonzero"/><path fill="#479ba0" d="M 136.214844 198.730469 C 133.75 197.621094 131.285156 196.515625 128.824219 195.40625 C 127.941406 195.007812 127.171875 196.316406 128.0625 196.71875 C 130.523438 197.828125 132.984375 198.933594 135.449219 200.042969 C 136.332031 200.4375 137.101562 199.128906 136.214844 198.730469 " fill-opacity="1" fill-rule="nonzero"/><path fill="#479ba0" d="M 134.320312 202.972656 C 131.855469 201.867188 129.394531 200.757812 126.929688 199.648438 C 126.046875 199.25 125.277344 200.5625 126.167969 200.960938 C 128.628906 202.066406 131.09375 203.175781 133.554688 204.285156 C 134.4375 204.683594 135.207031 203.375 134.320312 202.972656 " fill-opacity="1" fill-rule="nonzero"/><g clip-path="url(#a369209b9e)"><path fill="#834baa" d="M 124.167969 230.03125 C 126.066406 226.71875 125.101562 222.753906 121.960938 220.636719 C 118.804688 218.511719 114.609375 219.855469 112.605469 222.851562 C 112.375 223.203125 112.546875 223.683594 112.878906 223.890625 C 116.296875 226.027344 119.714844 228.167969 123.132812 230.304688 C 123.964844 230.824219 124.722656 229.507812 123.894531 228.992188 C 120.476562 226.855469 117.058594 224.714844 113.640625 222.578125 C 113.730469 222.925781 113.824219 223.273438 113.914062 223.617188 C 115.566406 221.144531 118.644531 220.46875 121.199219 221.949219 C 123.765625 223.433594 124.257812 226.832031 122.859375 229.265625 C 122.371094 230.113281 123.679688 230.878906 124.167969 230.03125 " fill-opacity="1" fill-rule="nonzero"/></g><path fill="#834baa" d="M 126.558594 176.289062 C 126.558594 177.40625 125.664062 178.308594 124.554688 178.308594 C 123.445312 178.308594 122.546875 177.40625 122.546875 176.289062 C 122.546875 175.179688 123.445312 174.277344 124.554688 174.277344 C 125.664062 174.277344 126.558594 175.179688 126.558594 176.289062 " fill-opacity="1" fill-rule="nonzero"/><path fill="#c62f6a" d="M 146.550781 188.09375 C 147.542969 189.976562 148.53125 191.859375 149.523438 193.738281 C 150.101562 194.832031 150.601562 195.882812 151.929688 196.074219 C 154.152344 196.394531 155.464844 194.140625 154.648438 192.253906 C 153.816406 190.320312 152.65625 188.472656 151.671875 186.613281 C 151.097656 185.515625 150.601562 184.46875 149.269531 184.273438 C 147.046875 183.953125 145.734375 186.203125 146.550781 188.09375 C 146.9375 188.992188 148.238281 188.214844 147.855469 187.328125 C 147.519531 186.554688 148.011719 186 148.722656 185.785156 C 149.648438 185.503906 150.054688 186.777344 150.371094 187.378906 C 151.363281 189.257812 152.355469 191.140625 153.34375 193.019531 C 153.742188 193.773438 153.144531 194.363281 152.476562 194.5625 C 151.550781 194.84375 151.144531 193.570312 150.828125 192.972656 C 149.835938 191.089844 148.84375 189.210938 147.855469 187.328125 C 147.398438 186.464844 146.09375 187.230469 146.550781 188.09375 " fill-opacity="1" fill-rule="nonzero"/><g clip-path="url(#da69fabfa0)"><path fill="#c62f6a" d="M 154.96875 146.96875 C 154.96875 148.082031 154.066406 148.984375 152.960938 148.984375 C 151.851562 148.984375 150.953125 148.082031 150.953125 146.96875 C 150.953125 145.855469 151.851562 144.953125 152.960938 144.953125 C 154.066406 144.953125 154.96875 145.855469 154.96875 146.96875 " fill-opacity="1" fill-rule="nonzero"/></g><path fill="#eba94a" d="M 146.4375 158.386719 C 144.53125 160.308594 142.628906 162.226562 140.722656 164.148438 C 140.035156 164.84375 141.101562 165.917969 141.792969 165.222656 C 143.695312 163.300781 145.601562 161.382812 147.503906 159.460938 C 148.195312 158.765625 147.128906 157.691406 146.4375 158.386719 " fill-opacity="1" fill-rule="nonzero"/><path fill="#eba94a" d="M 143.292969 158.265625 C 141.386719 160.183594 139.484375 162.105469 137.578125 164.023438 C 136.890625 164.71875 137.960938 165.792969 138.648438 165.097656 C 140.554688 163.179688 142.457031 161.257812 144.363281 159.339844 C 145.050781 158.644531 143.980469 157.570312 143.292969 158.265625 " fill-opacity="1" fill-rule="nonzero"/><path fill="#eba94a" d="M 146.574219 161.546875 C 144.667969 163.46875 142.765625 165.386719 140.859375 167.308594 C 140.167969 168.003906 141.238281 169.078125 141.925781 168.382812 C 143.832031 166.460938 145.738281 164.542969 147.644531 162.621094 C 148.332031 161.925781 147.261719 160.851562 146.574219 161.546875 " fill-opacity="1" fill-rule="nonzero"/><path fill="#eba94a" d="M 150.652344 216.90625 C 150.652344 218.019531 149.753906 218.921875 148.644531 218.921875 C 147.535156 218.921875 146.640625 218.019531 146.640625 216.90625 C 146.640625 215.792969 147.535156 214.890625 148.644531 214.890625 C 149.753906 214.890625 150.652344 215.792969 150.652344 216.90625 " fill-opacity="1" fill-rule="nonzero"/><path fill="#479ba0" d="M 177.109375 194.066406 C 179.066406 198.140625 183.796875 199.972656 187.960938 198.222656 C 192.191406 196.445312 194.015625 191.402344 192.28125 187.242188 C 192.078125 186.757812 191.65625 186.570312 191.171875 186.789062 C 186.574219 188.871094 181.976562 190.949219 177.378906 193.027344 C 176.492188 193.425781 177.261719 194.738281 178.140625 194.339844 C 182.738281 192.261719 187.335938 190.179688 191.933594 188.101562 C 191.5625 187.949219 191.191406 187.796875 190.824219 187.644531 C 192.257812 191.089844 191.03125 194.835938 187.753906 196.652344 C 184.269531 198.582031 180.054688 196.707031 178.414062 193.300781 C 177.992188 192.414062 176.683594 193.1875 177.109375 194.066406 " fill-opacity="1" fill-rule="nonzero"/><path fill="#479ba0" d="M 170.050781 176.132812 C 172.726562 175.785156 175.40625 175.441406 178.082031 175.09375 C 179.035156 174.96875 179.046875 173.449219 178.082031 173.574219 C 175.40625 173.921875 172.726562 174.265625 170.050781 174.613281 C 169.097656 174.734375 169.085938 176.257812 170.050781 176.132812 " fill-opacity="1" fill-rule="nonzero"/><path fill="#479ba0" d="M 172.460938 178.164062 C 175.136719 177.816406 177.8125 177.46875 180.488281 177.125 C 181.441406 177 181.453125 175.480469 180.488281 175.605469 C 177.8125 175.949219 175.136719 176.296875 172.460938 176.644531 C 171.507812 176.769531 171.496094 178.285156 172.460938 178.164062 " fill-opacity="1" fill-rule="nonzero"/><path fill="#479ba0" d="M 171.867188 173.550781 C 174.546875 173.203125 177.222656 172.859375 179.898438 172.511719 C 180.851562 172.390625 180.863281 170.867188 179.898438 170.992188 C 177.222656 171.339844 174.546875 171.683594 171.867188 172.03125 C 170.914062 172.15625 170.902344 173.675781 171.867188 173.550781 " fill-opacity="1" fill-rule="nonzero"/><path fill="#479ba0" d="M 236.648438 154.433594 C 235.75 149.84375 231.558594 147.03125 227.007812 147.667969 C 222.394531 148.3125 219.667969 152.972656 220.269531 157.351562 C 220.332031 157.789062 220.839844 157.941406 221.203125 157.878906 C 226.175781 157.042969 231.144531 156.207031 236.117188 155.371094 C 237.082031 155.207031 236.667969 153.746094 235.714844 153.90625 C 230.742188 154.742188 225.773438 155.578125 220.800781 156.417969 C 221.109375 156.59375 221.421875 156.769531 221.730469 156.945312 C 221.207031 153.148438 223.730469 149.859375 227.410156 149.132812 C 231.15625 148.394531 234.496094 151.296875 235.191406 154.839844 C 235.378906 155.800781 236.832031 155.390625 236.648438 154.433594 " fill-opacity="1" fill-rule="nonzero"/><path fill="#479ba0" d="M 244.746094 201.726562 C 242.28125 200.617188 239.820312 199.507812 237.355469 198.402344 C 236.476562 198.003906 235.703125 199.3125 236.59375 199.714844 C 239.054688 200.820312 241.519531 201.929688 243.980469 203.035156 C 244.863281 203.433594 245.632812 202.125 244.746094 201.726562 " fill-opacity="1" fill-rule="nonzero"/><path fill="#479ba0" d="M 243.746094 198.730469 L 236.359375 195.40625 C 235.476562 195.007812 234.703125 196.316406 235.597656 196.71875 C 238.054688 197.828125 240.519531 198.933594 242.984375 200.042969 C 243.863281 200.4375 244.632812 199.128906 243.746094 198.730469 " fill-opacity="1" fill-rule="nonzero"/><path fill="#479ba0" d="M 241.851562 202.972656 C 239.390625 201.867188 236.925781 200.757812 234.464844 199.648438 C 233.582031 199.25 232.8125 200.5625 233.699219 200.960938 C 236.160156 202.066406 238.625 203.175781 241.089844 204.285156 C 241.96875 204.683594 242.742188 203.375 241.851562 202.972656 " fill-opacity="1" fill-rule="nonzero"/><g clip-path="url(#44af5b8b61)"><path fill="#834baa" d="M 231.699219 230.03125 C 233.597656 226.71875 232.636719 222.753906 229.496094 220.636719 C 226.335938 218.511719 222.140625 219.855469 220.140625 222.851562 C 219.90625 223.203125 220.078125 223.683594 220.410156 223.890625 C 223.828125 226.027344 227.246094 228.167969 230.664062 230.304688 C 231.496094 230.824219 232.253906 229.507812 231.425781 228.992188 C 228.011719 226.855469 224.59375 224.714844 221.175781 222.578125 L 221.449219 223.617188 C 223.097656 221.144531 226.179688 220.46875 228.730469 221.949219 C 231.296875 223.433594 231.789062 226.832031 230.394531 229.265625 C 229.90625 230.113281 231.210938 230.878906 231.699219 230.03125 " fill-opacity="1" fill-rule="nonzero"/></g><path fill="#834baa" d="M 189.679688 155.558594 C 191.574219 152.25 190.613281 148.28125 187.472656 146.164062 C 184.316406 144.039062 180.121094 145.382812 178.121094 148.378906 C 177.886719 148.730469 178.058594 149.210938 178.390625 149.417969 C 181.808594 151.554688 185.226562 153.695312 188.644531 155.832031 C 189.472656 156.351562 190.234375 155.035156 189.40625 154.519531 C 185.988281 152.382812 182.570312 150.246094 179.152344 148.105469 C 179.242188 148.453125 179.335938 148.800781 179.425781 149.148438 C 181.078125 146.671875 184.15625 145.996094 186.707031 147.476562 C 189.277344 148.960938 189.769531 152.359375 188.371094 154.792969 C 187.886719 155.640625 189.191406 156.40625 189.679688 155.558594 " fill-opacity="1" fill-rule="nonzero"/><path fill="#834baa" d="M 234.09375 176.289062 C 234.09375 177.40625 233.195312 178.308594 232.085938 178.308594 C 230.976562 178.308594 230.082031 177.40625 230.082031 176.289062 C 230.082031 175.179688 230.976562 174.277344 232.085938 174.277344 C 233.195312 174.277344 234.09375 175.179688 234.09375 176.289062 " fill-opacity="1" fill-rule="nonzero"/><path fill="#834baa" d="M 168.847656 203.628906 C 168.847656 204.746094 167.949219 205.648438 166.839844 205.648438 C 165.734375 205.648438 164.835938 204.746094 164.835938 203.628906 C 164.835938 202.515625 165.734375 201.613281 166.839844 201.613281 C 167.949219 201.613281 168.847656 202.515625 168.847656 203.628906 " fill-opacity="1" fill-rule="nonzero"/><path fill="#c62f6a" d="M 202.34375 160.960938 C 200.964844 162.582031 199.59375 164.199219 198.214844 165.816406 C 197.488281 166.675781 196.492188 167.664062 196.851562 168.917969 C 197.441406 170.984375 199.808594 171.738281 201.355469 170.195312 C 202.84375 168.714844 204.125 166.9375 205.484375 165.339844 C 206.214844 164.484375 207.210938 163.496094 206.847656 162.238281 C 206.257812 160.171875 203.890625 159.421875 202.34375 160.960938 C 201.648438 161.652344 202.71875 162.726562 203.414062 162.035156 C 204.042969 161.40625 204.789062 161.566406 205.265625 162.28125 C 205.828125 163.128906 204.515625 164.144531 204.039062 164.707031 C 202.789062 166.179688 201.539062 167.648438 200.289062 169.121094 C 199.703125 169.8125 198.882812 169.546875 198.4375 168.875 C 197.875 168.03125 199.183594 167.011719 199.660156 166.449219 C 200.910156 164.980469 202.160156 163.507812 203.414062 162.035156 C 204.042969 161.296875 202.976562 160.214844 202.34375 160.960938 " fill-opacity="1" fill-rule="nonzero"/><path fill="#c62f6a" d="M 205.132812 208.597656 C 205.132812 209.710938 204.234375 210.613281 203.128906 210.613281 C 202.019531 210.613281 201.121094 209.710938 201.121094 208.597656 C 201.121094 207.484375 202.019531 206.582031 203.128906 206.582031 C 204.234375 206.582031 205.132812 207.484375 205.132812 208.597656 " fill-opacity="1" fill-rule="nonzero"/><g clip-path="url(#7cd513d5ec)"><path fill="#c62f6a" d="M 262.5 146.96875 C 262.5 148.082031 261.601562 148.984375 260.492188 148.984375 C 259.382812 148.984375 258.484375 148.082031 258.484375 146.96875 C 258.484375 145.855469 259.382812 144.953125 260.492188 144.953125 C 261.601562 144.953125 262.5 145.855469 262.5 146.96875 " fill-opacity="1" fill-rule="nonzero"/></g><g clip-path="url(#cfe43c62d4)"><path fill="#c62f6a" d="M 254.082031 188.09375 C 255.074219 189.976562 256.066406 191.859375 257.058594 193.738281 C 257.636719 194.832031 258.132812 195.882812 259.464844 196.074219 C 261.683594 196.394531 262.996094 194.140625 262.183594 192.253906 C 261.351562 190.320312 260.1875 188.472656 259.207031 186.613281 C 258.632812 185.515625 258.132812 184.46875 256.800781 184.273438 C 254.582031 183.953125 253.269531 186.203125 254.082031 188.09375 C 254.46875 188.992188 255.769531 188.214844 255.386719 187.328125 C 255.050781 186.554688 255.542969 186 256.253906 185.785156 C 257.183594 185.503906 257.585938 186.777344 257.902344 187.378906 L 260.878906 193.019531 C 261.273438 193.773438 260.675781 194.363281 260.011719 194.5625 C 259.082031 194.84375 258.675781 193.570312 258.363281 192.972656 C 257.371094 191.089844 256.378906 189.210938 255.386719 187.328125 C 254.929688 186.464844 253.625 187.230469 254.082031 188.09375 " fill-opacity="1" fill-rule="nonzero"/></g><path fill="#eba94a" d="M 187.863281 224.96875 C 186.753906 222.496094 185.644531 220.027344 184.535156 217.554688 C 184.136719 216.660156 182.832031 217.4375 183.230469 218.320312 C 184.339844 220.792969 185.449219 223.261719 186.554688 225.734375 C 186.957031 226.625 188.257812 225.855469 187.863281 224.96875 " fill-opacity="1" fill-rule="nonzero"/><path fill="#eba94a" d="M 189.09375 222.0625 C 187.988281 219.589844 186.882812 217.121094 185.769531 214.644531 C 185.371094 213.757812 184.066406 214.527344 184.464844 215.414062 C 185.574219 217.886719 186.683594 220.359375 187.789062 222.828125 C 188.1875 223.722656 189.492188 222.945312 189.09375 222.0625 " fill-opacity="1" fill-rule="nonzero"/><path fill="#eba94a" d="M 184.871094 223.972656 C 183.765625 221.5 182.660156 219.027344 181.550781 216.558594 C 181.148438 215.664062 179.847656 216.4375 180.246094 217.324219 C 181.351562 219.792969 182.457031 222.265625 183.570312 224.738281 C 183.96875 225.628906 185.273438 224.859375 184.871094 223.972656 " fill-opacity="1" fill-rule="nonzero"/><path fill="#eba94a" d="M 168.847656 156.785156 C 168.847656 157.898438 167.949219 158.800781 166.839844 158.800781 C 165.734375 158.800781 164.835938 157.898438 164.835938 156.785156 C 164.835938 155.671875 165.734375 154.769531 166.839844 154.769531 C 167.949219 154.769531 168.847656 155.671875 168.847656 156.785156 " fill-opacity="1" fill-rule="nonzero"/><path fill="#eba94a" d="M 212.171875 185.617188 C 212.171875 186.730469 211.273438 187.632812 210.164062 187.632812 C 209.058594 187.632812 208.160156 186.730469 208.160156 185.617188 C 208.160156 184.503906 209.058594 183.601562 210.164062 183.601562 C 211.273438 183.601562 212.171875 184.503906 212.171875 185.617188 " fill-opacity="1" fill-rule="nonzero"/><path fill="#eba94a" d="M 253.96875 158.386719 C 252.0625 160.308594 250.15625 162.226562 248.253906 164.148438 C 247.566406 164.84375 248.636719 165.917969 249.324219 165.222656 C 251.230469 163.300781 253.132812 161.382812 255.039062 159.460938 C 255.726562 158.765625 254.660156 157.691406 253.96875 158.386719 " fill-opacity="1" fill-rule="nonzero"/><path fill="#eba94a" d="M 250.828125 158.265625 C 248.921875 160.183594 247.015625 162.105469 245.113281 164.023438 C 244.421875 164.71875 245.492188 165.792969 246.179688 165.097656 C 248.085938 163.179688 249.992188 161.257812 251.894531 159.339844 C 252.585938 158.644531 251.515625 157.570312 250.828125 158.265625 " fill-opacity="1" fill-rule="nonzero"/><path fill="#eba94a" d="M 254.105469 161.546875 C 252.199219 163.46875 250.296875 165.386719 248.390625 167.308594 C 247.703125 168.003906 248.769531 169.078125 249.460938 168.382812 C 251.363281 166.460938 253.269531 164.542969 255.175781 162.621094 C 255.867188 161.925781 254.796875 160.851562 254.105469 161.546875 " fill-opacity="1" fill-rule="nonzero"/><path fill="#eba94a" d="M 258.183594 216.90625 C 258.183594 218.019531 257.285156 218.921875 256.179688 218.921875 C 255.066406 218.921875 254.171875 218.019531 254.171875 216.90625 C 254.171875 215.792969 255.066406 214.890625 256.179688 214.890625 C 257.285156 214.890625 258.183594 215.792969 258.183594 216.90625 " fill-opacity="1" fill-rule="nonzero"/></svg>