<svg xmlns="http://www.w3.org/2000/svg" xmlns:xlink="http://www.w3.org/1999/xlink" width="500" zoomAndPan="magnify" viewBox="0 0 375 374.999991" height="500" preserveAspectRatio="xMidYMid meet" version="1.0"><defs><clipPath id="b079e3d4da"><path d="M 161 186 L 199 186 L 199 210.476562 L 161 210.476562 Z M 161 186 " clip-rule="nonzero"/></clipPath><clipPath id="b80477dd54"><path d="M 168 164 L 208.8125 164 L 208.8125 175 L 168 175 Z M 168 164 " clip-rule="nonzero"/></clipPath><clipPath id="87bf6b5255"><path d="M 156 133.226562 L 194 133.226562 L 194 154 L 156 154 Z M 156 133.226562 " clip-rule="nonzero"/></clipPath></defs><g clip-path="url(#b079e3d4da)"><path fill="#9a91c6" d="M 192.71875 209.910156 C 194.507812 208.488281 196.296875 207.0625 198.085938 205.640625 C 199.199219 204.753906 199.011719 203.019531 197.730469 202.390625 C 187.1875 197.226562 175.667969 192.171875 164.4375 187.082031 C 162.289062 186.105469 160.574219 189.070312 162.507812 190.425781 C 171.796875 196.945312 181.085938 203.460938 190.378906 209.980469 C 191.085938 210.480469 192.042969 210.449219 192.71875 209.910156 Z M 192.71875 209.910156 " fill-opacity="1" fill-rule="nonzero"/></g><g clip-path="url(#b80477dd54)"><path fill="#9a91c6" d="M 206.097656 173.425781 C 206.835938 171.269531 207.570312 169.113281 208.308594 166.957031 C 208.765625 165.613281 207.667969 164.253906 206.25 164.410156 C 194.566406 165.695312 182.117188 167.59375 169.898438 169.3125 C 167.554688 169.640625 167.71875 173.050781 170.082031 173.160156 C 181.441406 173.6875 192.800781 174.210938 204.160156 174.738281 C 205.027344 174.777344 205.816406 174.242188 206.097656 173.425781 Z M 206.097656 173.425781 " fill-opacity="1" fill-rule="nonzero"/></g><g clip-path="url(#87bf6b5255)"><path fill="#9a91c6" d="M 192.070312 144.273438 C 192.910156 144.054688 193.5 143.308594 193.519531 142.445312 C 193.574219 140.167969 193.625 137.894531 193.675781 135.617188 C 193.707031 134.199219 192.246094 133.226562 190.941406 133.796875 C 180.183594 138.511719 168.886719 144.035156 157.746094 149.316406 C 155.613281 150.328125 156.796875 153.535156 159.085938 152.9375 C 170.082031 150.046875 181.074219 147.160156 192.070312 144.273438 Z M 192.070312 144.273438 " fill-opacity="1" fill-rule="nonzero"/></g></svg>