<svg xmlns="http://www.w3.org/2000/svg" xmlns:xlink="http://www.w3.org/1999/xlink" width="500" zoomAndPan="magnify" viewBox="0 0 375 374.999991" height="500" preserveAspectRatio="xMidYMid meet" version="1.0"><defs><clipPath id="6b94b4ec10"><path d="M 147.847656 97 L 227 97 L 227 246.828125 L 147.847656 246.828125 Z M 147.847656 97 " clip-rule="nonzero"/></clipPath></defs><g clip-path="url(#6b94b4ec10)"><path fill="#9a91c6" d="M 147.964844 143.097656 C 148.195312 147.144531 151.722656 150.109375 155.800781 148.835938 C 157.847656 148.195312 159.644531 147.15625 161.136719 145.632812 C 163.144531 143.582031 165.527344 141.992188 167.703125 140.148438 C 170.03125 138.175781 171.988281 135.902344 173.878906 133.542969 C 177.238281 129.351562 180.710938 125.257812 184.242188 121.207031 C 187.046875 117.984375 189.960938 114.832031 192.097656 111.078125 C 193.210938 109.113281 193.472656 106.882812 194.082031 104.765625 C 194.425781 103.59375 193.921875 102.410156 193.226562 101.4375 C 191.316406 98.753906 188.945312 96.816406 185.277344 97.0625 C 182.871094 96.851562 180.703125 97.867188 178.644531 99.117188 C 174.035156 101.914062 170.3125 105.707031 166.839844 109.789062 C 163.765625 113.40625 160.648438 116.988281 158.136719 121.027344 C 154.789062 126.410156 151.492188 131.820312 149.277344 137.828125 C 148.636719 139.570312 147.855469 141.152344 147.964844 143.097656 Z M 176.804688 168.8125 C 178.636719 168.109375 180.554688 167.679688 182.292969 166.675781 C 186.792969 164.074219 191.472656 161.816406 196.367188 160.046875 C 199.757812 158.824219 203.257812 157.988281 206.773438 157.234375 C 210.851562 156.355469 214.921875 156.089844 219.03125 157.183594 C 225.738281 158.96875 227.347656 165.328125 225.980469 170.511719 C 225.371094 172.828125 223.324219 173.621094 221.351562 174.402344 C 217.59375 175.886719 213.574219 176.359375 209.683594 177.316406 C 204.570312 178.578125 199.484375 179.957031 194.324219 181.050781 C 190.589844 181.84375 186.851562 182.335938 183.289062 182.496094 C 181.328125 182.394531 179.5625 182.371094 177.988281 183.121094 C 175.933594 184.101562 171.984375 182.882812 170.421875 180.722656 C 169.632812 179.632812 169.042969 178.425781 169.367188 176.972656 C 170.292969 172.824219 172.957031 170.289062 176.804688 168.8125 Z M 175.242188 214.023438 C 175.300781 213.398438 175.886719 213.0625 176.121094 212.519531 C 176.851562 210.851562 178.582031 210.136719 180.175781 210.933594 C 181.785156 211.734375 183.378906 212.601562 184.898438 213.566406 C 192.097656 218.128906 197.945312 224.210938 203.523438 230.554688 C 205.738281 233.074219 207.648438 235.835938 208.296875 239.289062 C 208.8125 242.023438 207.796875 244.285156 205.355469 245.574219 C 203.867188 246.359375 202.25 246.484375 200.644531 246.628906 C 198.507812 246.816406 196.742188 246.046875 195.300781 244.414062 C 194.097656 243.058594 193.089844 241.5625 192.058594 240.089844 C 190.1875 237.433594 187.652344 235.339844 185.789062 232.71875 C 182.6875 228.339844 179.75 223.84375 176.632812 219.472656 C 175.804688 218.3125 174.960938 217.011719 175.234375 215.292969 C 175.230469 214.945312 175.195312 214.480469 175.242188 214.023438 Z M 169.066406 152.621094 C 172.792969 150.996094 175.894531 148.253906 179.699219 146.746094 C 181.804688 145.914062 183.808594 144.828125 186.203125 145.09375 C 188.03125 144.898438 189.730469 145.195312 190.828125 146.890625 C 192.046875 148.773438 191.734375 150.628906 189.847656 152.511719 C 185.703125 156.648438 180.628906 159.132812 175.078125 160.738281 C 174.160156 161.003906 173.195312 161.136719 172.289062 161.449219 C 171.109375 161.855469 169.957031 161.691406 168.964844 161.132812 C 166.734375 159.875 166.539062 158.039062 167.109375 155.421875 C 167.355469 154.285156 167.890625 153.132812 169.066406 152.621094 Z M 193.066406 207.996094 C 190.113281 207.996094 187.585938 207.40625 184.722656 206.027344 C 183.132812 205.265625 181.515625 204.601562 179.8125 204.117188 C 176.816406 203.265625 175.386719 199.925781 176.761719 197.195312 C 176.871094 196.980469 176.949219 196.730469 176.972656 196.492188 C 177.183594 194.441406 178.558594 193.375 180.476562 193.914062 C 183.945312 194.894531 187.519531 195.144531 191.066406 195.632812 C 193.703125 195.996094 196.277344 196.621094 198.136719 198.761719 C 199.058594 199.820312 199.839844 201.019531 199.636719 202.492188 C 199.226562 205.496094 196.179688 207.996094 193.066406 207.996094 Z M 193.066406 207.996094 " fill-opacity="1" fill-rule="nonzero"/></g></svg>