<svg xmlns="http://www.w3.org/2000/svg" xmlns:xlink="http://www.w3.org/1999/xlink" width="500" zoomAndPan="magnify" viewBox="0 0 375 374.999991" height="500" preserveAspectRatio="xMidYMid meet" version="1.0"><defs><clipPath id="c74dd1f4a5"><path d="M 113 161.238281 L 262.5 161.238281 L 262.5 195 L 113 195 Z M 113 161.238281 " clip-rule="nonzero"/></clipPath><clipPath id="d36db76ffb"><path d="M 112.5 198 L 171 198 L 171 213.738281 L 112.5 213.738281 Z M 112.5 198 " clip-rule="nonzero"/></clipPath></defs><g clip-path="url(#c74dd1f4a5)"><path fill="#a3966e" d="M 158.28125 194.242188 C 154.277344 194.242188 149.832031 192.726562 144.808594 189.660156 C 143.621094 188.933594 142.4375 188.164062 141.289062 187.417969 C 137.679688 185.0625 133.949219 182.632812 129.820312 181.503906 C 124.796875 180.132812 118.097656 181.277344 115.582031 186.105469 C 115.359375 186.535156 114.828125 186.703125 114.394531 186.476562 C 113.964844 186.25 113.796875 185.71875 114.023438 185.289062 C 115.386719 182.667969 117.832031 180.78125 121.089844 179.832031 C 123.992188 178.988281 127.257812 178.980469 130.289062 179.804688 C 134.683594 181.003906 138.53125 183.515625 142.253906 185.941406 C 143.390625 186.679688 144.5625 187.445312 145.726562 188.15625 C 151.898438 191.917969 157.046875 193.207031 161.476562 192.089844 C 164.910156 191.226562 167.699219 188.996094 170.648438 186.632812 C 172.375 185.25 174.164062 183.824219 176.101562 182.683594 C 182.449219 178.945312 190.859375 178.035156 201.820312 179.886719 C 204.183594 180.289062 206.574219 180.777344 208.886719 181.253906 C 214.851562 182.472656 221.019531 183.734375 227.132812 183.535156 C 241.058594 183.078125 254.53125 174.363281 260.660156 161.855469 C 260.875 161.417969 261.402344 161.238281 261.839844 161.453125 C 262.277344 161.664062 262.457031 162.195312 262.242188 162.628906 C 259.085938 169.074219 254.089844 174.632812 247.789062 178.707031 C 241.484375 182.78125 234.363281 185.0625 227.191406 185.296875 C 220.867188 185.503906 214.597656 184.21875 208.53125 182.976562 C 206.234375 182.507812 203.859375 182.023438 201.523438 181.628906 C 190.992188 179.84375 182.964844 180.683594 176.992188 184.199219 C 175.164062 185.277344 173.425781 186.667969 171.746094 188.011719 C 168.777344 190.386719 165.707031 192.839844 161.902344 193.800781 C 160.734375 194.09375 159.527344 194.242188 158.277344 194.242188 Z M 158.28125 194.242188 " fill-opacity="1" fill-rule="nonzero"/></g><path fill="#5c594b" d="M 225.164062 195.175781 C 223.710938 195.175781 222.203125 195.101562 220.601562 194.953125 C 220.117188 194.910156 219.757812 194.480469 219.804688 193.996094 C 219.847656 193.511719 220.277344 193.15625 220.761719 193.199219 C 222.808594 193.386719 224.6875 193.449219 226.503906 193.390625 C 240.433594 192.933594 253.90625 184.21875 260.035156 171.710938 C 260.246094 171.273438 260.777344 171.09375 261.210938 171.308594 C 261.648438 171.519531 261.832031 172.046875 261.617188 172.484375 C 258.460938 178.929688 253.460938 184.488281 247.160156 188.5625 C 240.859375 192.636719 233.738281 194.917969 226.5625 195.152344 C 226.101562 195.167969 225.636719 195.175781 225.167969 195.175781 Z M 225.164062 195.175781 " fill-opacity="1" fill-rule="nonzero"/><path fill="#5c594b" d="M 157.671875 204.09375 C 155.371094 204.09375 152.921875 203.601562 150.347656 202.617188 C 149.894531 202.441406 149.664062 201.933594 149.839844 201.480469 C 150.011719 201.023438 150.523438 200.796875 150.976562 200.96875 C 154.601562 202.355469 157.921875 202.683594 160.84375 201.945312 C 164.277344 201.082031 167.066406 198.851562 170.015625 196.492188 C 171.742188 195.109375 173.53125 193.679688 175.46875 192.539062 C 181.816406 188.804688 190.230469 187.890625 201.191406 189.746094 C 203.554688 190.144531 205.941406 190.636719 208.253906 191.105469 C 209.308594 191.324219 210.367188 191.539062 211.425781 191.75 C 211.902344 191.84375 212.210938 192.308594 212.117188 192.78125 C 212.027344 193.257812 211.5625 193.570312 211.085938 193.476562 C 210.023438 193.265625 208.960938 193.050781 207.902344 192.832031 C 205.605469 192.363281 203.230469 191.878906 200.898438 191.480469 C 190.367188 189.699219 182.339844 190.539062 176.367188 194.054688 C 174.535156 195.132812 172.800781 196.523438 171.121094 197.863281 C 168.152344 200.238281 165.082031 202.695312 161.277344 203.65625 C 160.125 203.945312 158.921875 204.089844 157.671875 204.089844 Z M 157.671875 204.09375 " fill-opacity="1" fill-rule="nonzero"/><path fill="#5c594b" d="M 140.566406 197.042969 C 140.402344 197.042969 140.234375 196.996094 140.089844 196.898438 C 136.375 194.484375 132.988281 192.398438 129.195312 191.363281 C 124.167969 189.988281 117.472656 191.136719 114.957031 195.960938 C 114.730469 196.390625 114.199219 196.558594 113.769531 196.335938 C 113.335938 196.109375 113.167969 195.578125 113.394531 195.148438 C 114.761719 192.523438 117.203125 190.636719 120.464844 189.6875 C 123.363281 188.84375 126.632812 188.835938 129.660156 189.664062 C 133.703125 190.765625 137.210938 192.925781 141.050781 195.421875 C 141.460938 195.691406 141.574219 196.234375 141.308594 196.640625 C 141.140625 196.902344 140.859375 197.042969 140.570312 197.042969 Z M 140.566406 197.042969 " fill-opacity="1" fill-rule="nonzero"/><path fill="#bed4eb" d="M 245.011719 199 C 244.714844 199 244.425781 198.851562 244.257812 198.578125 C 244.007812 198.160156 244.140625 197.617188 244.558594 197.367188 C 251.074219 193.421875 256.207031 187.886719 259.402344 181.359375 C 259.617188 180.921875 260.144531 180.742188 260.582031 180.953125 C 261.019531 181.167969 261.203125 181.695312 260.988281 182.132812 C 257.640625 188.964844 252.273438 194.753906 245.46875 198.871094 C 245.328125 198.960938 245.171875 199 245.011719 199 Z M 245.011719 199 " fill-opacity="1" fill-rule="nonzero"/><path fill="#bed4eb" d="M 224.558594 204.824219 C 218.703125 204.824219 212.898438 203.636719 207.273438 202.484375 C 204.976562 202.011719 202.597656 201.527344 200.265625 201.132812 C 197.199219 200.613281 194.453125 200.320312 191.863281 200.234375 C 191.378906 200.21875 190.996094 199.8125 191.011719 199.324219 C 191.027344 198.839844 191.433594 198.460938 191.921875 198.472656 C 194.589844 198.558594 197.414062 198.859375 200.558594 199.394531 C 202.925781 199.792969 205.3125 200.28125 207.625 200.757812 C 213.59375 201.976562 219.761719 203.242188 225.875 203.039062 C 227.597656 202.984375 229.34375 202.796875 231.066406 202.492188 C 231.546875 202.40625 232.003906 202.726562 232.089844 203.203125 C 232.175781 203.683594 231.855469 204.140625 231.375 204.226562 C 229.566406 204.550781 227.738281 204.742188 225.933594 204.800781 C 225.472656 204.816406 225.015625 204.824219 224.558594 204.824219 Z M 224.558594 204.824219 " fill-opacity="1" fill-rule="nonzero"/><g clip-path="url(#d36db76ffb)"><path fill="#bed4eb" d="M 157.023438 213.746094 C 153.019531 213.746094 148.574219 212.230469 143.550781 209.164062 C 142.363281 208.4375 141.175781 207.667969 140.03125 206.921875 C 136.421875 204.570312 132.691406 202.136719 128.566406 201.011719 C 123.539062 199.636719 116.84375 200.78125 114.328125 205.609375 C 114.101562 206.039062 113.570312 206.207031 113.140625 205.980469 C 112.707031 205.757812 112.539062 205.226562 112.765625 204.792969 C 114.132812 202.171875 116.574219 200.285156 119.835938 199.335938 C 122.734375 198.492188 126 198.484375 129.03125 199.308594 C 133.425781 200.507812 137.273438 203.019531 140.996094 205.445312 C 142.132812 206.183594 143.308594 206.949219 144.472656 207.660156 C 150.640625 211.425781 155.792969 212.710938 160.21875 211.597656 C 163.34375 210.808594 165.976562 208.855469 168.621094 206.753906 C 169.003906 206.453125 169.558594 206.515625 169.859375 206.894531 C 170.164062 207.277344 170.101562 207.832031 169.71875 208.132812 C 166.917969 210.359375 164.117188 212.429688 160.652344 213.304688 C 159.484375 213.597656 158.277344 213.746094 157.027344 213.746094 Z M 157.023438 213.746094 " fill-opacity="1" fill-rule="nonzero"/></g></svg>